<?xml version="1.0" encoding="UTF-8" standalone="no"?>
<!-- Created with Inkscape (http://www.inkscape.org/) -->

<svg
   width="100mm"
   height="144mm"
   viewBox="0 0 100 144"
   version="1.1"
   id="svg27262"
   xmlns="http://www.w3.org/2000/svg"
   xmlnsSvg="http://www.w3.org/2000/svg">
  <defs
     id="defs27259" />
  <g
     id="layer1">
    <path
       id="path3093-9-9"
       style="display:inline;fill:#ffffff;fill-opacity:1;stroke-width:0.205472"
       d="m 45.901542,143.76402 c -7.013826,-0.94876 -13.106982,-3.00935 -18.211652,-6.15884 -2.013217,-1.24212 -4.878099,-3.4964 -4.878099,-3.83841 0,-0.14603 0.658536,0.13509 1.463443,0.62478 4.769845,2.90198 10.894476,5.00322 16.987662,5.82811 6.403065,0.86684 17.021547,0.0941 22.460005,-1.63445 8.725149,-2.77321 14.340663,-5.73245 19.91023,-10.49215 6.3114,-5.39376 10.500515,-12.25776 11.808039,-19.34805 0.203114,-1.10012 0.271138,-2.1412 0.275935,-4.2192 0.0072,-2.39419 -0.04221,-3.00732 -0.363915,-4.640333 -0.483069,-2.454429 -1.594886,-5.420575 -2.779248,-7.41455 -0.810808,-1.365047 -0.94807,-1.731836 -0.94807,-2.533371 0,-1.270639 0.120938,-1.963978 0.34228,-1.963978 0.296227,0 1.976412,2.197611 3.111665,4.070068 1.3243,2.184375 2.886742,6.231359 3.386826,8.772444 0.341609,1.73592 0.378739,2.24297 0.378739,5.17021 0,3.05457 -0.02734,3.37923 -0.452951,5.51742 -0.593078,2.9748 -2.352815,7.42872 -4.030458,10.20112 -6.425012,10.61746 -18.068997,18.21276 -32.590351,21.25842 -3.531294,0.74065 -12.841678,1.21042 -15.870137,0.80076 z m -1.948852,-8.20511 c -14.309659,-1.55061 -26.297843,-9.35586 -31.156633,-20.28552 -0.763522,-1.71758 -1.738634,-5.27075 -1.979708,-7.21401 -0.288647,-2.32671 -0.192127,-5.44778 0.242259,-7.84172 0.639087,-3.521874 2.405632,-7.818125 4.641942,-11.289478 0.903873,-1.403017 1.305845,-1.552368 0.677201,-0.251613 -1.058104,2.189518 -2.015001,5.070974 -2.422811,7.295944 -1.030543,5.621777 -0.289367,10.902207 2.256761,16.074577 6.194766,12.58548 22.184297,20.42738 38.681876,18.97114 4.83051,-0.42638 7.253872,-0.91814 11.35384,-2.30389 7.463534,-2.5226 13.461634,-6.39985 18.489942,-11.95211 1.51616,-1.67414 1.924967,-1.98187 1.560802,-1.1749 -0.35245,0.781 -2.790659,4.05441 -4.083029,5.48169 -6.532892,7.21479 -15.3767,12.11105 -25.266378,13.98846 -3.177266,0.60315 -9.725608,0.85582 -12.995901,0.50144 z m 11.579413,-14.51542 c -0.867444,-0.86747 -0.953155,-3.42226 -0.165983,-4.94471 1.148962,-2.22184 5.449358,-3.96571 11.182638,-4.53474 1.970809,-0.19563 5.641385,-0.51586 8.156816,-0.71168 9.121987,-0.71012 7.064416,-1.00544 -7.221741,-1.03651 -11.983416,-0.0259 -14.014218,-0.10597 -14.688023,-0.57789 -1.293641,-0.90611 -1.009374,-2.12096 0.793701,-3.39188 1.753482,-1.23596 2.455216,-2.79213 2.862685,-6.348106 l 0.231657,-2.020163 4.475786,-4.488287 c 2.461687,-2.468571 4.826043,-5.176993 5.254131,-6.018723 0.929846,-1.828342 1.038756,-4.764036 0.234391,-6.319498 -0.522218,-1.009835 -0.509328,-1.074597 0.321988,-1.619405 2.107855,-1.381123 3.083308,-6.079494 1.783891,-8.592281 -0.664863,-1.285716 -2.180744,-2.167374 -3.726492,-2.167374 -0.601521,0 -1.007892,-0.138783 -0.903044,-0.308412 0.104819,-0.169677 -0.04701,-1.10762 -0.336812,-2.084445 -0.887716,-2.989273 -3.568511,-4.574445 -5.829018,-3.446753 -1.076424,0.536998 -1.093156,0.532441 -0.86906,-0.236598 0.834007,-2.862052 1.608707,-6.111559 1.608707,-6.747869 0,-0.425607 -0.692054,-1.42838 -1.600014,-2.318433 -3.520986,-3.451498 -4.468677,-6.596725 -3.329606,-11.050401 0.513655,-2.008351 0.707922,-3.911088 0.707922,-6.933385 0,-3.455346 0.08932,-4.165427 0.524104,-4.165427 0.288311,0 1.664685,0.731069 3.058674,1.624605 2.78959,1.788098 2.936677,1.814794 6.356249,1.153976 1.876271,-0.362621 2.880281,-0.372359 4.780058,-0.04701 1.322717,0.226764 2.630899,0.499115 2.907088,0.605099 0.276271,0.106018 1.75991,-0.601496 3.297138,-1.572195 1.537219,-0.970689 2.974954,-1.764889 3.19493,-1.764889 0.268019,0 0.477801,1.59692 0.635782,4.837355 0.131971,2.707808 0.458852,5.456876 0.742362,6.244595 1.243745,3.455297 0.360605,6.875265 -2.626639,10.171516 -1.154662,1.274145 -2.195726,2.700453 -2.313459,3.169576 -0.197596,0.787325 0.69273,6.090244 1.089065,6.486594 0.0959,0.09575 0.60782,-0.232281 1.1379,-0.729021 1.35117,-1.266105 3.448999,-2.25192 6.654923,-3.127298 3.449915,-0.942002 4.891641,-1.676712 6.427315,-3.275436 1.392751,-1.449915 1.886992,-1.551836 2.598594,-0.535871 0.500703,0.714821 0.52905,0.705346 1.797021,-0.600245 0.708575,-0.729591 1.779847,-2.248725 2.380615,-3.375865 0.600738,-1.127135 1.265467,-1.9923 1.477153,-1.922592 1.248418,0.411168 1.677744,4.818867 0.726512,7.459168 -0.278718,0.773975 -0.509324,1.429224 -0.512245,1.456098 -0.0028,0.02687 0.271809,0.02687 0.610362,0 0.516269,-0.04126 0.608775,0.236742 0.573068,1.720314 -0.04605,1.901801 -1.178067,4.540006 -2.750516,6.408759 -0.732461,0.870505 -0.786928,1.05726 -0.296899,1.017625 1.909985,-0.154469 -0.876856,3.893296 -3.278333,4.761685 -0.864149,0.312441 -1.195597,0.645976 -1.195597,1.202979 0,1.15518 -2.304871,1.949255 -5.601971,1.929994 -4.232654,-0.02447 -4.600465,-0.01007 -4.600465,0.185412 0,0.101509 0.783109,1.638709 1.740251,3.415965 3.360773,6.24045 5.295915,12.530814 5.295915,17.214966 0,2.446883 -0.656411,5.363301 -1.811422,8.048221 l -0.748685,1.74028 1.444235,1.23617 c 1.722453,1.47438 2.327145,3.18598 1.807436,5.11608 -0.400998,1.489 -2.187959,3.21646 -3.915636,3.78516 -2.73698,0.90094 -9.312821,1.86571 -14.71816,2.15938 -3.192665,0.17342 -6.438108,0.49692 -7.212083,0.71882 -0.827239,0.23717 -2.159781,1.11288 -3.233139,2.1248 -1.567917,1.4781 -2.02779,1.72136 -3.254247,1.72136 -0.959205,0 -1.65936,-0.23104 -2.131918,-0.70362 z m 33.914714,-48.1577 c 0.582802,-0.228635 0.520256,-0.323907 -0.486503,-0.740923 -0.635413,-0.263222 -1.569667,-0.824647 -2.076069,-1.247645 -0.779195,-0.650874 -1.228697,-0.743053 -2.924238,-0.599621 l -2.003526,0.169485 0.579535,0.884483 c 0.318918,0.48647 1.062018,1.094649 1.651728,1.35151 1.156629,0.503816 4.173409,0.608625 5.259073,0.182725 z M 81.64225,71.393017 c -0.525375,-1.337459 -0.597237,-1.393284 -0.905212,-0.703053 -0.252956,0.566501 -0.179079,0.921594 0.301744,1.452807 1.000811,1.105908 1.223669,0.829038 0.603516,-0.749754 z m 11.043318,-0.887285 c 0.601214,-0.278765 1.516054,-0.948296 2.032972,-1.487856 l 0.939886,-0.981027 -1.896577,0.1573 c -1.043122,0.08645 -2.698285,-0.01487 -3.678175,-0.224844 -1.877988,-0.402773 -4.510633,0.08736 -3.575079,0.665529 0.240244,0.148522 0.336476,0.532019 0.213763,0.852179 -0.168045,0.437457 0.147418,0.751486 1.26801,1.26352 1.582999,0.723264 2.737286,0.663078 4.695349,-0.244801 z M 83.119711,68.09739 c -1.280171,-1.143081 -1.30763,-1.205464 -0.387518,-0.879514 1.640488,0.581123 3.166678,0.402053 5.185152,-0.608284 l 1.916064,-0.959123 -1.88208,-0.274352 c -2.96286,-0.431892 -3.427925,-0.936106 -0.832357,-0.902406 1.865688,0.02447 2.353534,-0.10266 3.124722,-0.812852 1.380346,-1.271152 2.211777,-3.386654 2.220541,-5.650135 0.01391,-3.167931 -0.181813,-3.346348 -1.90833,-1.754834 -1.358523,1.252236 -4.753563,2.869429 -6.023942,2.869429 -2.20167,0 -7.906911,3.007287 -7.874299,4.150647 0.02063,0.764515 2.405665,5.344016 2.428514,4.665275 0.01391,-0.419611 0.09283,-0.411983 0.456837,0.04461 0.73012,0.915152 1.764923,1.320347 3.400811,1.331611 l 1.553784,0.01055 -1.377904,-1.230347 z m 9.644517,-0.745451 c 2.165283,-0.433091 5.129519,-3.938984 5.820532,-6.884162 l 0.22163,-0.944271 -1.746784,1.175486 c -0.960716,0.646524 -2.583848,1.448601 -3.606894,1.782395 -2.499177,0.815399 -2.924861,1.17314 -2.127931,1.78828 0.574968,0.443837 0.524617,0.567437 -0.69971,1.717464 -0.725581,0.681576 -1.319277,1.316255 -1.319277,1.410396 0,0.241395 2.166275,0.212851 3.458511,-0.04557 z m 1.914241,-6.135732 c 3.036199,-2.011086 4.850168,-6.121681 4.305207,-9.755856 l -0.23986,-1.600297 -1.040201,1.906109 c -0.572114,1.048365 -1.727399,2.618522 -2.567321,3.489247 -1.243607,1.289185 -1.558427,1.885026 -1.695541,3.209043 -0.09244,0.89425 -0.415485,2.121182 -0.717479,2.726511 -0.717852,1.438982 -0.189345,1.445799 1.95531,0.02542 z M 19.401046,109.39829 c -0.52383,-0.52384 0.01055,-2.30526 1.008755,-3.36884 0.42839,-0.45602 1.397975,-1.01457 2.154556,-1.24126 0.756619,-0.22662 1.586711,-0.73854 1.844618,-1.13746 0.738265,-1.14191 1.007556,-9.08429 0.53153,-15.677152 C 24.709952,84.780918 23.98096,79.122253 23.320496,75.398764 21.612036,65.767055 21.043875,52.55346 22.200091,49.342163 l 0.545715,-1.515653 -1.109304,0.257998 c -0.610089,0.141949 -1.425886,0.232088 -1.812871,0.200379 -0.38699,-0.03166 -2.286762,-0.09906 -4.221726,-0.149577 -3.98344,-0.104099 -6.332537,-0.92128 -6.332537,-2.202823 0,-0.477945 -0.5609795,-1.017735 -1.7489817,-1.682953 C 5.2990869,43.005745 4.2683754,42.039743 3.4407244,40.425952 2.8946977,39.361338 2.8627675,39.073861 3.2544492,38.748794 3.5142654,38.533016 4.0242652,38.456356 4.3874035,38.578493 4.860791,38.737664 4.7807258,38.565061 4.1045607,37.968894 0.99990991,35.231665 -1.4671692,26.918783 1.0179858,27.568664 1.8417846,27.784106 1.8333655,27.854193 1.1736548,26.274893 0.38761951,24.393715 0.13486473,20.191456 0.70578409,18.49626 1.4250472,16.360524 2.1541734,16.506848 3.5150042,19.060027 c 0.6423832,1.205205 1.9510443,3.048121 2.9081526,4.095363 l 1.7402172,1.904075 0.4545825,-0.867582 c 0.8024609,-1.531516 1.5387685,-1.484412 2.9700075,0.189969 1.544444,1.806812 3.885227,3.004739 8.330359,4.263155 5.549015,1.570904 8.280046,3.29958 9.735549,6.162293 l 0.826936,1.626366 0.640805,-1.343 c 0.601871,-1.261452 0.605133,-1.400297 0.05363,-2.286748 -2.072706,-3.332417 -2.123422,-3.52371 -1.952628,-7.363924 l 0.161858,-3.641088 -0.910547,1.677455 c -0.500765,0.922602 -1.335017,1.914624 -1.853896,2.204495 -0.856617,0.478521 -1.007378,0.469166 -1.638224,-0.101748 -0.98996,-0.895853 -3.661438,-8.175318 -3.649646,-9.944731 0.01391,-1.948925 0.914044,-3.577065 2.289338,-4.136711 0.620086,-0.252332 3.106373,-1.108345 5.525024,-1.9022281 l 4.397611,-1.4434337 6.684369,0.090715 c 6.310997,0.08563 6.802245,0.1416612 8.795181,1.0027055 1.16099,0.5015903 3.029215,1.1515103 4.151683,1.4442633 1.122439,0.292773 2.44175,0.794978 2.931798,1.116069 0.988861,0.647924 1.88765,2.488513 1.88765,3.865649 0,1.460195 -3.204179,9.675829 -3.923888,10.061015 -1.001986,0.536241 -2.558072,-0.475834 -3.402533,-2.212947 l -0.734,-1.509928 0.07253,3.695301 c 0.07081,3.622455 0.04984,3.730565 -1.071018,5.483821 -0.62885,0.98369 -1.143362,2.185349 -1.143362,2.670346 0,0.484997 0.958032,2.409686 2.12899,4.277081 l 2.12902,3.395275 -0.364107,1.969561 c -0.637097,3.446379 0.506579,6.627836 3.532911,9.82772 2.189101,2.314658 2.200954,3.428774 0.09796,9.21738 l -0.539776,1.485779 -0.906829,-0.840877 c -2.604327,-2.414866 -6.263321,-0.764918 -7.218189,3.254894 -0.410448,1.727903 -0.49438,1.826495 -1.554954,1.826495 -2.09439,0 -3.994099,2.533453 -3.987565,5.317939 0.0034,1.690614 0.803665,3.649646 1.963215,4.809186 1.185152,1.185158 1.187109,1.192656 0.601184,2.30326 -0.789988,1.497297 -0.751639,4.296433 0.08285,6.039548 0.832496,1.73932 8.732803,9.797538 10.233357,10.43794 l 1.09687,0.468111 -0.464704,2.286752 c -0.877485,4.317532 -1.114159,4.831312 -2.613576,5.674032 -1.550839,0.87163 -1.978202,1.69311 -1.421693,2.73295 0.204121,0.38162 0.371351,0.8625 0.371351,1.06871 0,0.53613 -31.02123,0.52388 -31.557567,-0.012 z M 19.180087,46.417016 c 0.888475,-0.274592 2.930383,-2.262781 2.930383,-2.853311 0,-0.0709 -1.147759,-0.148234 -2.550579,-0.171644 -2.00875,-0.03358 -2.700108,0.09254 -3.254247,0.593855 -0.38699,0.350147 -1.495157,1.035418 -2.462642,1.522909 -1.628461,0.820551 -1.693756,0.901187 -0.879542,1.086268 2.428898,0.552124 3.999559,0.507145 6.216627,-0.178077 z m 3.745081,-0.352546 c 0.887271,-0.456981 2.351606,-1.736058 2.351606,-2.054122 0,-0.119018 -0.435346,-0.210165 -0.96748,-0.20249 -0.591734,0.0086 -0.933323,-0.156916 -0.879508,-0.425895 0.186611,-0.933045 -0.463026,-0.381953 -0.829407,0.703615 -0.212372,0.628855 -0.505409,1.420421 -0.65146,1.759041 -0.309323,0.716865 -0.08625,0.767087 0.976249,0.219904 z m -7.993509,-2.242599 c 1.77221,-0.783766 1.93603,-0.942208 1.507635,-1.458372 -0.411504,-0.495843 -0.394186,-0.633604 0.120602,-0.958365 1.085495,-0.684718 -1.906887,-1.305792 -4.225919,-0.877091 -1.062465,0.196397 -3.0181529,0.30539 -4.345955,0.242211 -1.3278021,-0.06323 -2.4138446,-0.01055 -2.4133985,0.117675 0.00106,0.354993 2.0593653,2.009066 3.2949317,2.647995 2.6271138,1.358543 3.5393388,1.401579 6.0620178,0.285865 z m 9.496093,-2.746434 c 1.016756,-1.182058 1.341167,-1.203022 1.056352,-0.06822 -0.308603,1.229018 0.366218,1.110489 1.166075,-0.204888 0.393658,-0.64732 0.719992,-0.902886 0.809575,-0.634051 0.08486,0.254875 0.640464,-0.262359 1.279624,-1.191336 1.073943,-1.560956 1.105562,-1.698981 0.642733,-2.806706 -1.181718,-2.82827 -4.064719,-4.607781 -10.142404,-6.260325 -4.544482,-1.235643 -6.985613,-2.441476 -8.388741,-4.143714 -0.856655,-1.039275 -1.007522,-1.108522 -1.1754288,-0.539536 -1.2212323,4.138456 0.1237198,8.881288 3.0381568,10.712896 0.948305,0.59599 1.523993,0.680157 3.59195,0.525164 2.376906,-0.17812 2.419793,-0.167518 1.23134,0.305198 -0.677235,0.269411 -2.102051,0.507505 -3.166271,0.529179 l -1.934964,0.03934 1.055422,0.874495 c 1.984486,1.644274 5.552795,2.258205 8.091593,1.392167 0.672217,-0.229306 0.670466,-0.211221 -0.03934,0.405075 -0.408482,0.354801 -1.200063,1.005248 -1.759013,1.445415 l -1.01632,0.800302 2.422096,-0.11638 c 2.119124,-0.101844 2.524084,-0.234919 3.23737,-1.064157 z M 12.378255,39.051048 c -1.986477,-1.272591 -2.7452593,-3.145086 -1.274434,-3.145086 0.996973,0 -0.49946,-1.309429 -1.7693933,-1.548281 -1.6047828,-0.30184 -5.139862,-2.042249 -6.5281424,-3.214003 l -1.1861168,-1.00108 0.2615432,1.210588 c 0.5820776,2.694087 2.5914081,5.763689 4.8382381,7.391297 1.2798973,0.92714 1.6939627,1.030774 4.0974982,1.025435 l 2.673714,-0.0058 -1.112917,-0.713065 z M 9.0456603,32.537369 C 8.654065,31.652123 8.2409639,30.029572 8.1276589,28.931709 7.9359148,27.07397 7.7821167,26.798203 5.9089451,24.95391 4.6846139,23.748437 3.4794953,22.103837 2.832195,20.755172 L 1.7681092,18.538113 1.5155368,20.222501 c -0.57781777,3.853143 0.6786404,8.056981 3.1454077,10.523734 0.975798,0.975793 4.5238681,3.372938 5.028519,3.397385 0.037418,0.0018 -0.2522367,-0.720995 -0.6437936,-1.606251 z M 34.963387,5.8594399 c -1.720558,-0.483145 -3.35421,-1.8643589 -3.35421,-2.8358875 0,-0.8980307 2.081019,-2.24233515 4.130215,-2.66804332 5.031849,-1.04534307 11.026274,0.33249381 11.286801,2.59427682 0.23986,2.0813937 -1.842216,3.0824011 -6.797712,3.2682734 C 37.909519,6.3050325 36.114935,6.18256 34.963387,5.8594207 Z M 43.74655,4.3157785 c 1.062258,-0.3624763 1.759051,-0.8093017 1.759051,-1.1279796 0,-0.8118107 -3.17139,-1.7282434 -5.980744,-1.7282434 -2.551209,0 -5.830122,0.8736417 -6.066831,1.6164735 -0.501321,1.573054 6.750935,2.4469354 10.288524,1.2397495 z m 6.320738,87.0856955 c -2.159941,-2.178044 -4.214226,-4.513171 -4.565055,-5.189173 -1.898059,-3.657211 0.544856,-7.737545 4.632485,-7.737545 1.150099,0 1.837883,0.27795 3.132042,1.265827 1.820628,1.38971 1.905961,1.381968 4.34039,-0.39385 0.893214,-0.65156 1.638632,-0.871986 2.948704,-0.871986 1.601108,0 1.886747,0.13341 3.290158,1.536844 1.420311,1.420316 1.536845,1.675479 1.536845,3.365302 0,1.005651 -0.175626,2.174258 -0.389916,2.596901 -0.214483,0.422633 -2.309751,2.707783 -4.656171,5.078093 -3.537929,3.573942 -4.443452,4.30965 -5.304267,4.30965 -0.855417,0 -1.728843,-0.69664 -4.965181,-3.960083 z M 44.506191,77.400467 c -2.388727,-1.878967 -1.792382,-7.369111 0.800436,-7.369111 1.952628,0 3.582426,3.048361 3.050834,5.706244 -0.460771,2.303926 -2.123564,3.02187 -3.85127,1.662867 z m 18.43956,-0.204505 c -1.937718,-2.463404 0.183492,-7.718231 2.845841,-7.05002 1.143744,0.287017 1.819261,1.617913 1.790425,3.527289 -0.05498,3.634568 -2.867396,5.771509 -4.636266,3.522731 z M 50.402929,72.794955 c -1.638771,-0.795184 -2.66157,-4.170814 -1.93283,-6.378969 0.461779,-1.399199 1.350623,-2.322127 2.437994,-2.531539 1.073018,-0.206615 2.782893,1.368881 3.210981,2.958667 0.615073,2.284239 -0.207911,5.314735 -1.617568,5.95706 -1.019514,0.464513 -1.131059,0.464225 -2.098577,-0.0053 z m 7.618829,-0.110671 c -0.455926,-0.243986 -1.038656,-0.821991 -1.294985,-1.284426 -0.548948,-0.990463 -0.633451,-3.762332 -0.15327,-5.025545 0.924252,-2.430923 3.536,-3.146938 4.947038,-1.356235 0.657404,0.834309 0.744727,1.31839 0.634415,3.516864 -0.108272,2.159742 -0.263606,2.684906 -1.014597,3.436075 -1.082982,1.082987 -2.02521,1.298486 -3.118707,0.713267 z m 4.722424,-41.310878 c -3.231254,-0.842642 -4.456679,-2.526123 -2.981655,-4.096193 1.252706,-1.333478 2.967705,-1.746353 7.203348,-1.734173 4.618752,0.01343 7.008538,0.809992 7.426657,2.47592 0.567,2.259034 -1.726674,3.439428 -6.898942,3.550411 -2.031704,0.04366 -4.168909,-0.04461 -4.749408,-0.195965 z m 8.420157,-1.727615 c 0.9547,-0.330191 1.790358,-0.77209 1.857029,-0.982087 0.06663,-0.210022 -0.551049,-0.684944 -1.372617,-1.055422 -2.154633,-0.971606 -7.634463,-0.953755 -9.608193,0.03118 -0.773971,0.386271 -1.40722,0.860642 -1.40722,1.054132 0,0.674788 3.480434,1.55234 6.156623,1.55234 1.574374,0 3.338678,-0.242115 4.374378,-0.600259 z" />
  </g>
</svg>
