<?xml version="1.0" encoding="UTF-8" standalone="no"?>
<!-- Created with Inkscape (http://www.inkscape.org/) -->

<svg
   width="100mm"
   height="20mm"
   viewBox="0 0 100 20"
   version="1.1"
   id="svg43034"
   xmlns="http://www.w3.org/2000/svg"
   xmlnsSvg="http://www.w3.org/2000/svg">
  <defs
     id="defs43031" />
  <g
     id="layer1"
     style="display:none">
    <g
       aria-label="LLC"
       id="text6499-9-1"
       style="font-size:5.89067px;line-height:1.25;font-family:Outfit;-inkscape-font-specification:'Outfit, Normal';display:inline;stroke-width:0.147268" />
    <g
       aria-label="Gentle Goodbyes"
       id="text6499"
       style="font-size:13.1501px;line-height:1.25;font-family:Outfit;-inkscape-font-specification:'Outfit, Normal';display:inline;stroke-width:0.328755" />
    <g
       aria-label="MN"
       id="text6499-9"
       style="font-size:7.66149px;line-height:1.25;font-family:Outfit;-inkscape-font-specification:'Outfit, Normal';display:inline;stroke-width:0.19154">
      <path
         id="path45290"
         d="M 17.268344,5.4670739 V 0.14999988 h 0.505658 l 0.214522,0.83510241 V 5.4670739 Z m 3.677515,0 -3.263794,-4.3593878 0.09194,-0.95768622 3.271457,4.35172632 z m 0,0 -0.214521,-0.7891334 V 0.14999988 h 0.72018 V 5.4670739 Z m -10.105496,0 V 0.14999988 h 0.505659 L 13.5985,3.8504995 h -0.344767 l 2.252478,-3.70049962 h 0.505658 V 5.4670739 h -0.72018 V 1.4141457 l 0.168553,0.045969 -1.777466,2.9190276 H 13.177118 L 11.399652,1.4601147 11.560543,1.4141457 V 5.4670739 Z M 97.698467,14.22697 q -0.526004,0 -0.999408,-0.131501 -0.460253,-0.144651 -0.854756,-0.394503 -0.394503,-0.263002 -0.683805,-0.618054 l 0.762706,-0.762706 q 0.341902,0.420803 0.789006,0.631205 0.447103,0.197251 0.999407,0.197251 0.552304,0 0.854757,-0.184101 0.302452,-0.197252 0.302452,-0.539154 0,-0.341903 -0.249852,-0.526004 Q 98.382272,11.702151 98.000919,11.5838 97.619566,11.452299 97.185613,11.333949 96.76481,11.202448 96.383457,11.005196 96.002104,10.807945 95.752252,10.466042 95.51555,10.124139 95.51555,9.5586851 q 0,-0.5654543 0.276153,-0.9731074 0.276152,-0.4208032 0.762705,-0.6443549 0.499704,-0.2235517 1.196659,-0.2235517 0.736406,0 1.30186,0.263002 0.578605,0.2498519 0.946807,0.7627058 L 99.237029,9.5060847 Q 98.974027,9.1641821 98.579524,8.9800807 98.198171,8.7959793 97.711617,8.7959793 q -0.512854,0 -0.789006,0.1841014 -0.263002,0.1709513 -0.263002,0.4865537 0,0.3156024 0.236702,0.4865537 0.236702,0.1709509 0.618055,0.2893019 0.394503,0.118351 0.815306,0.249852 0.420803,0.118351 0.802156,0.328753 0.381353,0.210401 0.618055,0.565454 0.249851,0.355053 0.249851,0.933657 0,0.881057 -0.631204,1.393911 -0.618055,0.512853 -1.670063,0.512853 z m -6.141082,0 q -0.933657,0 -1.683213,-0.420803 -0.749556,-0.433953 -1.183509,-1.170359 -0.433953,-0.736405 -0.433953,-1.670062 0,-0.920507 0.420803,-1.6569128 0.433953,-0.7364056 1.157209,-1.1572088 0.736405,-0.4339533 1.643762,-0.4339533 0.867907,0 1.525412,0.394503 0.670655,0.394503 1.038858,1.0914583 0.381353,0.6969553 0.381353,1.5780116 0,0.131501 -0.01315,0.289303 -0.01315,0.144651 -0.0526,0.341902 h -5.27319 v -0.986257 h 4.641985 l -0.433953,0.381353 q 0,-0.631205 -0.223552,-1.0651585 -0.223551,-0.4471034 -0.631204,-0.6838052 -0.407654,-0.2498519 -0.986258,-0.2498519 -0.604905,0 -1.065158,0.263002 -0.460254,0.263002 -0.710105,0.7364056 -0.249852,0.473404 -0.249852,1.117758 0,0.657505 0.263002,1.157209 0.263002,0.486554 0.749555,0.762706 0.486554,0.263002 1.117759,0.263002 0.526004,0 0.959957,-0.184101 0.447104,-0.184102 0.762706,-0.552305 l 0.762706,0.775856 q -0.447104,0.526004 -1.104609,0.802156 -0.644355,0.276152 -1.38076,0.276152 z m -7.252274,-0.0789 -2.70892,-6.2988979 H 82.9112 l 2.011966,4.9312869 h -0.420803 l 2.117166,-4.9312869 h 1.31501 L 85.015216,14.14807 Z m -1.788414,2.564269 1.841014,-3.774078 0.657505,1.209809 -1.183509,2.564269 z M 78.124579,14.22697 q -0.710105,0 -1.28871,-0.289302 -0.565454,-0.302452 -0.907356,-0.828456 -0.341903,-0.526004 -0.381353,-1.196659 v -1.880464 q 0.03945,-0.6838055 0.381353,-1.1966594 0.355052,-0.526004 0.920507,-0.8153062 0.578604,-0.3024523 1.275559,-0.3024523 0.854757,0 1.538562,0.4339533 0.696955,0.4339533 1.091458,1.1703589 0.394503,0.7364057 0.394503,1.6569127 0,0.920507 -0.394503,1.656912 -0.394503,0.736406 -1.091458,1.170359 -0.683805,0.420803 -1.538562,0.420803 z m -0.197251,-1.117758 q 0.591754,0 1.038858,-0.276152 0.447103,-0.276152 0.710105,-0.749556 0.263002,-0.486553 0.263002,-1.117758 0,-0.618055 -0.263002,-1.1046086 -0.263002,-0.4865537 -0.710105,-0.7495557 -0.447104,-0.2761521 -1.025708,-0.2761521 -0.591755,0 -1.038858,0.2761521 -0.447103,0.263002 -0.696955,0.7495557 -0.249852,0.4865536 -0.249852,1.1177586 0,0.618055 0.236702,1.104608 0.249851,0.473404 0.696955,0.749556 0.460253,0.276152 1.038858,0.276152 z m -3.090274,0.986257 V 4.7062983 h 1.183509 v 4.6682854 l -0.223551,1.5122613 0.223551,1.525412 v 1.683212 z m -5.010173,0.131501 q -0.867906,0 -1.551712,-0.420803 -0.683805,-0.433953 -1.091458,-1.170359 -0.394503,-0.736405 -0.394503,-1.656912 0,-0.920507 0.394503,-1.6569127 0.407653,-0.7364056 1.091458,-1.1703589 0.683806,-0.4339533 1.551712,-0.4339533 0.696955,0 1.26241,0.3024523 0.565454,0.2893022 0.907357,0.8153062 0.355052,0.5128539 0.394503,1.1966594 v 1.880464 q -0.03945,0.670655 -0.381353,1.196659 -0.341903,0.526004 -0.907357,0.828456 -0.565454,0.289302 -1.27556,0.289302 z m 0.197252,-1.117758 q 0.591754,0 1.025707,-0.276152 0.447104,-0.276152 0.696956,-0.749556 0.249852,-0.486553 0.249852,-1.104608 0,-0.644355 -0.263002,-1.1177586 Q 71.483794,9.3877338 71.03669,9.1115817 70.602737,8.8354296 70.010983,8.8354296 q -0.591755,0 -1.038858,0.2761521 -0.447104,0.2761521 -0.710106,0.7627058 -0.249852,0.4734035 -0.249852,1.0914585 0,0.631205 0.249852,1.117758 0.263002,0.473404 0.710106,0.749556 0.460253,0.276152 1.052008,0.276152 z m 3.090273,0.986257 H 71.917747 V 12.412257 L 72.141299,10.886845 71.917747,9.3745837 V 4.7062983 h 1.196659 z M 62.594324,14.22697 q -0.920507,0 -1.656913,-0.433953 -0.736405,-0.433953 -1.170359,-1.170359 -0.433953,-0.749555 -0.433953,-1.670062 0,-0.907357 0.433953,-1.6306127 0.433954,-0.7364056 1.170359,-1.1703589 0.736406,-0.4339533 1.656913,-0.4339533 0.907357,0 1.643762,0.4339533 0.749556,0.4208032 1.183509,1.1572088 0.433954,0.7364058 0.433954,1.6437628 0,0.920507 -0.433954,1.670062 -0.433953,0.736406 -1.183509,1.170359 -0.736405,0.433953 -1.643762,0.433953 z m 0,-1.144058 q 0.591754,0 1.052008,-0.276152 0.460253,-0.276152 0.723255,-0.749556 0.263002,-0.486554 0.263002,-1.104608 0,-0.604905 -0.276152,-1.0783085 -0.263002,-0.4734036 -0.723255,-0.7364056 -0.447104,-0.2761521 -1.038858,-0.2761521 -0.591755,0 -1.052008,0.2761521 -0.460254,0.263002 -0.723256,0.7364056 -0.263002,0.4734035 -0.263002,1.0783085 0,0.618054 0.263002,1.104608 0.263002,0.473404 0.723256,0.749556 0.460253,0.276152 1.052008,0.276152 z m -7.442955,1.144058 q -0.920507,0 -1.656913,-0.433953 -0.736405,-0.433953 -1.170359,-1.170359 -0.433953,-0.749555 -0.433953,-1.670062 0,-0.907357 0.433953,-1.6306127 0.433954,-0.7364056 1.170359,-1.1703589 0.736406,-0.4339533 1.656913,-0.4339533 0.907357,0 1.643762,0.4339533 0.749556,0.4208032 1.183509,1.1572088 0.433954,0.7364058 0.433954,1.6437628 0,0.920507 -0.433954,1.670062 -0.433953,0.736406 -1.183509,1.170359 -0.736405,0.433953 -1.643762,0.433953 z m 0,-1.144058 q 0.591754,0 1.052008,-0.276152 0.460253,-0.276152 0.723255,-0.749556 0.263002,-0.486554 0.263002,-1.104608 0,-0.604905 -0.276152,-1.0783085 Q 56.65048,9.4008839 56.190227,9.1378819 55.743123,8.8617298 55.151369,8.8617298 q -0.591755,0 -1.052008,0.2761521 -0.460254,0.263002 -0.723256,0.7364056 -0.263002,0.4734035 -0.263002,1.0783085 0,0.618054 0.263002,1.104608 0.263002,0.473404 0.723256,0.749556 0.460253,0.276152 1.052008,0.276152 z m -8.679051,1.144058 q -0.959958,0 -1.801564,-0.355052 -0.828456,-0.368203 -1.459661,-1.012558 -0.618055,-0.644355 -0.973107,-1.499111 -0.355053,-0.854757 -0.355053,-1.8410142 0,-0.9862575 0.355053,-1.8278639 0.355052,-0.8547565 0.986257,-1.4991114 0.631205,-0.6443549 1.472811,-0.9994076 0.854757,-0.3550527 1.854164,-0.3550527 1.091459,0 2.011966,0.4208032 0.920507,0.4208032 1.538561,1.2098092 L 49.246989,7.3231681 Q 48.813036,6.6919633 48.10293,6.3632108 47.392825,6.0213082 46.551218,6.0213082 q -0.999407,0 -1.775263,0.4471034 -0.762706,0.4471034 -1.196659,1.2361094 -0.420803,0.789006 -0.420803,1.8147138 0,1.0388582 0.433953,1.8278642 0.433953,0.789006 1.170359,1.236109 0.736405,0.447103 1.683213,0.447103 0.959957,0 1.656912,-0.368202 0.710106,-0.368203 1.091458,-1.078309 0.381353,-0.723255 0.381353,-1.7621129 l 0.749556,0.5391539 h -3.94503 V 9.2299326 h 4.471034 V 9.414034 q 0,1.591162 -0.565454,2.66947 -0.552304,1.065158 -1.551712,1.604312 -0.986258,0.539154 -2.261817,0.539154 z m -11.230153,0 q -0.933657,0 -1.683213,-0.420803 -0.749555,-0.433953 -1.183509,-1.170359 -0.433953,-0.736405 -0.433953,-1.670062 0,-0.920507 0.420803,-1.6569128 0.433953,-0.7364056 1.157209,-1.1572088 0.736406,-0.4339533 1.643762,-0.4339533 0.867907,0 1.525412,0.394503 0.670655,0.394503 1.038858,1.0914583 0.381353,0.6969553 0.381353,1.5780116 0,0.131501 -0.01315,0.289303 -0.01315,0.144651 -0.0526,0.341902 h -5.27319 v -0.986257 h 4.641985 l -0.433953,0.381353 q 0,-0.631205 -0.223552,-1.0651585 Q 36.530876,9.2956831 36.123223,9.0589813 35.71557,8.8091294 35.136965,8.8091294 q -0.604904,0 -1.065158,0.263002 -0.460253,0.263002 -0.710105,0.7364056 -0.249852,0.473404 -0.249852,1.117758 0,0.657505 0.263002,1.157209 0.263002,0.486554 0.749556,0.762706 0.486553,0.263002 1.117758,0.263002 0.526004,0 0.959957,-0.184101 0.447104,-0.184102 0.762706,-0.552305 l 0.762706,0.775856 q -0.447104,0.526004 -1.104609,0.802156 -0.644354,0.276152 -1.38076,0.276152 z m -5.81232,-0.131501 V 4.7062983 h 1.183509 v 9.3891707 z m -3.879255,0 V 5.2323022 h 1.183509 V 14.095469 Z M 24.012028,8.9274803 V 7.8491721 h 4.260632 v 1.0783082 z m -2.130289,5.1679887 v -3.642577 q 0,-0.7101055 -0.447103,-1.170359 -0.447104,-0.4602535 -1.157209,-0.4602535 -0.473404,0 -0.841607,0.2104016 -0.368202,0.2104016 -0.578604,0.5786044 -0.210402,0.3682028 -0.210402,0.8416065 L 18.160261,10.17674 q 0,-0.7101056 0.315602,-1.2624098 0.315603,-0.5523042 0.881057,-0.8679066 0.565454,-0.3287525 1.27556,-0.3287525 0.710105,0 1.249259,0.3550527 0.552304,0.3550527 0.867907,0.9336571 0.315602,0.5654543 0.315602,1.2098091 v 3.879279 z m -4.418434,0 V 7.8491721 h 1.183509 v 6.2462969 z m -4.155421,0.131501 q -0.933657,0 -1.683213,-0.420803 -0.749556,-0.433953 -1.183509,-1.170359 -0.433953,-0.736405 -0.433953,-1.670062 0,-0.920507 0.420803,-1.6569128 0.433953,-0.7364056 1.157209,-1.1572088 0.736405,-0.4339533 1.643762,-0.4339533 0.867907,0 1.525412,0.394503 0.670655,0.394503 1.038857,1.0914583 0.381353,0.6969553 0.381353,1.5780116 0,0.131501 -0.01315,0.289303 -0.01315,0.144651 -0.0526,0.341902 h -5.27319 v -0.986257 h 4.641985 l -0.433953,0.381353 q 0,-0.631205 -0.223552,-1.0651585 Q 14.596593,9.2956831 14.18894,9.0589813 13.781287,8.8091294 13.202683,8.8091294 q -0.604905,0 -1.065158,0.263002 -0.460254,0.263002 -0.710106,0.7364056 -0.249852,0.473404 -0.249852,1.117758 0,0.657505 0.263002,1.157209 0.263002,0.486554 0.749556,0.762706 0.486554,0.263002 1.117759,0.263002 0.526004,0 0.959957,-0.184101 0.447103,-0.184102 0.762706,-0.552305 l 0.762705,0.775856 q -0.447103,0.526004 -1.104608,0.802156 -0.644355,0.276152 -1.38076,0.276152 z m -8.7185008,0 q -0.9599573,0 -1.8015637,-0.355052 Q 1.9593633,13.503715 1.3281585,12.85936 0.71010378,12.215005 0.35505108,11.360249 -1.6088486e-6,10.505492 -1.6088486e-6,9.5192348 q 0,-0.9862575 0.3550526888486,-1.8278639 Q 0.71010378,6.8366144 1.3413086,6.1922595 1.9725134,5.5479046 2.8141197,5.1928519 3.6688762,4.8377992 4.6682838,4.8377992 q 1.0914583,0 2.0119653,0.4208032 0.9205069,0.4208032 1.5385616,1.2098092 L 7.3640543,7.3231681 Q 6.930101,6.6919633 6.2199956,6.3632108 5.5098902,6.0213082 4.6682838,6.0213082 q -0.9994076,0 -1.7752635,0.4471034 Q 2.1303146,6.915515 1.6963613,7.704521 1.2755581,8.493527 1.2755581,9.5192348 q 0,1.0388582 0.4339533,1.8278642 0.4339533,0.789006 1.1703588,1.236109 0.7364056,0.447103 1.6832128,0.447103 0.9599573,0 1.6569126,-0.368202 Q 6.930101,12.293906 7.3114539,11.5838 7.6928067,10.860545 7.6928067,9.8216871 L 8.4423624,10.360841 H 4.4973325 V 9.2299326 H 8.9683664 V 9.414034 q 0,1.591162 -0.5654543,2.66947 -0.5523042,1.065158 -1.5517117,1.604312 -0.9862575,0.539154 -2.2618172,0.539154 z m 91.3258608,5.612653 q -0.4418,0 -0.818803,-0.159048 -0.377003,-0.164939 -0.659755,-0.453582 -0.276861,-0.288643 -0.430019,-0.671536 -0.153157,-0.382894 -0.153157,-0.818803 0,-0.441801 0.153157,-0.824694 0.153158,-0.382894 0.430019,-0.665646 0.282752,-0.288643 0.653864,-0.447691 0.377003,-0.164939 0.818803,-0.164939 0.483035,0 0.848257,0.164939 0.365221,0.164939 0.647974,0.447691 l -0.382894,0.382894 q -0.194392,-0.217955 -0.477144,-0.341659 -0.276862,-0.123704 -0.636193,-0.123704 -0.323986,0 -0.594957,0.117813 -0.270971,0.111923 -0.471254,0.323987 -0.200283,0.212064 -0.312205,0.500707 -0.106032,0.288643 -0.106032,0.630302 0,0.341658 0.106032,0.630301 0.111922,0.288643 0.312205,0.500707 0.200283,0.212064 0.471254,0.329878 0.270971,0.111922 0.594957,0.111922 0.382894,0 0.665646,-0.123704 0.282752,-0.129594 0.477144,-0.347549 l 0.382894,0.377003 q -0.282752,0.294533 -0.665646,0.459472 -0.377003,0.164939 -0.854147,0.164939 z m -4.753751,-0.05891 v -4.088125 h 0.553723 v 4.088125 z m 0.377003,0 v -0.506598 h 2.191329 v 0.506598 z m -3.628642,0 v -4.088125 h 0.553723 v 4.088125 z m 0.377003,0 v -0.506598 h 2.191329 v 0.506598 z"
         style="fill:#f9f9f9;fill-opacity:1" />
    </g>
  </g>
  <g
     id="layer5"
     style="display:inline">
    <g
       aria-label="Gentle Goodbyes"
       id="text6499-2-5"
       style="font-weight:bold;font-size:11.3927px;line-height:1.25;font-family:'Segoe Script';-inkscape-font-specification:'Segoe Script, Bold';display:inline;fill:#fbfbfb;stroke-width:0.284818" />
    <g
       aria-label="MN"
       id="text6499-9-2-8"
       style="font-weight:bold;font-size:6.73663px;line-height:1.25;font-family:'Segoe Script';-inkscape-font-specification:'Segoe Script, Bold';display:inline;fill:#fbfbfb;stroke-width:0.168417" />
    <g
       aria-label="LLC"
       id="text6499-9-1-2-4"
       style="font-size:5.52792px;line-height:1.25;font-family:'Segoe Script';-inkscape-font-specification:'Segoe Script, Normal';display:inline;fill:#fbfbfb;stroke-width:0.138199">
      <path
         id="path48623"
         d="m 99.99999,17.766857 q 0,0.167349 -0.22943,0.412974 -0.05668,0.06208 -0.140358,0.137659 -0.08097,0.07558 -0.172747,0.153853 -0.09177,0.07558 -0.186243,0.151154 -0.09177,0.07558 -0.172748,0.137658 -0.259121,0.199739 -0.542535,0.377885 -0.283414,0.178146 -0.572226,0.313105 -0.288812,0.134959 -0.577625,0.213235 -0.286113,0.07828 -0.553331,0.07828 -0.291512,0 -0.507446,-0.08367 -0.215934,-0.08368 -0.358991,-0.237528 -0.140357,-0.153853 -0.210536,-0.369788 -0.07018,-0.218633 -0.07018,-0.485852 -0.0027,-0.242926 0.04859,-0.49395 0.05398,-0.251023 0.148454,-0.49395 0.09447,-0.242926 0.226732,-0.466958 0.132259,-0.226731 0.288812,-0.418373 0.09447,-0.116064 0.213235,-0.234828 0.118764,-0.121463 0.248324,-0.234829 0.13226,-0.113365 0.267219,-0.210536 0.134959,-0.09987 0.26452,-0.175446 0.08367,-0.04859 0.213235,-0.113366 0.129561,-0.06478 0.272617,-0.121463 0.143057,-0.05668 0.283414,-0.09447 0.140357,-0.04049 0.242926,-0.04049 0.16465,0 0.261821,0.02429 0.09987,0.02159 0.175446,0.07558 0.03509,0.02699 0.08098,0.08367 0.04859,0.05398 0.08907,0.121463 0.04319,0.06478 0.07018,0.13226 0.02969,0.06478 0.02969,0.110666 0,0.04589 -0.04319,0.137659 -0.04319,0.09177 -0.09987,0.191641 -0.05668,0.09717 -0.113366,0.183545 -0.05668,0.08367 -0.08637,0.116064 -0.110666,0.121463 -0.237527,0.121463 -0.107968,0 -0.170049,-0.06478 -0.05938,-0.06748 -0.05938,-0.167349 0,-0.03509 0.04049,-0.107967 0.04049,-0.07558 0.134959,-0.170049 0.09447,-0.09447 0.145756,-0.172747 0.05398,-0.08098 0.06748,-0.107967 -0.05398,-0.03779 -0.13226,-0.05938 -0.07828,-0.02159 -0.145755,-0.02159 -0.09717,0 -0.240227,0.04589 -0.143057,0.04319 -0.294211,0.113366 -0.148455,0.07018 -0.291511,0.156552 -0.140358,0.08367 -0.237528,0.161951 -0.278016,0.22943 -0.512844,0.49395 -0.234829,0.26452 -0.388682,0.585722 -0.06208,0.13226 -0.118764,0.278015 -0.05398,0.143057 -0.09447,0.291512 -0.04049,0.148455 -0.06478,0.29691 -0.02159,0.145755 -0.02159,0.280714 0,0.159252 0.03509,0.29691 0.03779,0.137658 0.121463,0.237528 0.08367,0.09987 0.218634,0.156552 0.137658,0.05668 0.337397,0.05668 0.215935,0 0.442666,-0.05938 0.226731,-0.05938 0.450763,-0.159252 0.226731,-0.102568 0.448064,-0.232129 0.221332,-0.13226 0.423771,-0.275316 0.205138,-0.143057 0.388682,-0.286113 0.183544,-0.143057 0.334698,-0.269918 0.06208,-0.05129 0.129561,-0.113366 0.07018,-0.06208 0.137658,-0.124162 0.06748,-0.06208 0.12956,-0.124162 0.06478,-0.06208 0.113366,-0.113366 0.121467,0.06208 0.121467,0.178146 z m -4.804539,1.419768 q -0.05398,0.06748 -0.137659,0.110667 -0.08367,0.04049 -0.148454,0.04049 -0.03779,0 -0.09447,0.0027 -0.05668,0 -0.118764,0.0027 -0.05938,0 -0.116064,0.0027 -0.05668,0 -0.09447,0 -0.172747,0 -0.36169,0.02969 -0.186243,0.02699 -0.372486,0.07288 -0.186244,0.04319 -0.369788,0.09177 -0.180845,0.05128 -0.342796,0.09447 -0.161951,0.04589 -0.302308,0.07288 -0.137658,0.02969 -0.237528,0.02969 -0.161951,0 -0.253723,-0.07558 -0.08907,-0.07288 -0.09447,-0.175447 -0.0054,-0.06478 0,-0.153853 0.0054,-0.08907 0.02159,-0.194341 0.01619,-0.105268 0.03779,-0.221333 0.02159,-0.118763 0.04858,-0.240227 0.0162,-0.08098 0.04049,-0.210536 0.02699,-0.12956 0.05128,-0.269918 0.02429,-0.143056 0.04589,-0.275316 0.02159,-0.134959 0.03509,-0.221333 0.02969,-0.19704 0.05398,-0.353592 0.02699,-0.159252 0.04859,-0.305007 0.02429,-0.145756 0.04589,-0.294211 0.02159,-0.151154 0.04049,-0.337397 0.01619,-0.202439 0.02159,-0.36169 0.0081,-0.159252 0.03509,-0.267219 0.02969,-0.110667 0.09177,-0.167349 0.06478,-0.05938 0.19704,-0.05938 0.07558,0 0.124163,0.02969 0.05128,0.02969 0.08367,0.07828 0.03239,0.04858 0.04859,0.110666 0.01619,0.06208 0.02159,0.124162 0.0027,0.0189 -0.01889,0.121464 -0.0189,0.102568 -0.05128,0.256422 -0.03239,0.151154 -0.07288,0.337397 -0.04049,0.186243 -0.08097,0.377885 -0.03779,0.191642 -0.07288,0.372487 -0.03239,0.178146 -0.05128,0.313105 -0.0162,0.118764 -0.04049,0.256422 -0.02159,0.134959 -0.04589,0.275316 -0.02429,0.137658 -0.04859,0.275317 -0.02429,0.137658 -0.04319,0.259121 -0.01889,0.118764 -0.02969,0.215934 -0.0081,0.09447 -0.0027,0.151154 0.0054,0.04858 0.04049,0.08907 0.03509,0.04049 0.09447,0.04049 0.06478,0 0.16195,-0.01619 0.09987,-0.0189 0.210536,-0.04589 0.113366,-0.02969 0.229431,-0.06208 0.116064,-0.03509 0.221332,-0.06478 0.02429,-0.0081 0.09177,-0.02159 0.07018,-0.01619 0.159251,-0.03509 0.09177,-0.01889 0.194341,-0.03779 0.102569,-0.01889 0.191642,-0.03509 0.09177,-0.01619 0.161951,-0.02699 0.07018,-0.0108 0.09717,-0.0108 0.03509,0 0.09717,-0.0081 0.06478,-0.0081 0.145756,-0.0135 0.08098,-0.0054 0.175447,-0.0054 0.09447,0 0.188942,0.0189 0.04859,0.0108 0.07288,0.04858 0.02429,0.03509 0.02699,0.08367 0.0027,0.04859 -0.0108,0.09717 -0.0135,0.04858 -0.04049,0.08367 z m -3.65469,-0.3266 q 0,0.08637 -0.04589,0.151154 -0.04589,0.06208 -0.107967,0.102569 -0.06208,0.04049 -0.126861,0.06208 -0.06478,0.01889 -0.102569,0.01889 -0.01889,0 -0.08097,-0.0081 -0.06208,-0.0108 -0.13226,-0.01889 -0.07018,-0.0108 -0.134959,-0.01889 -0.06208,-0.0108 -0.08098,-0.0108 -0.08907,0 -0.210536,0.0108 -0.121463,0.0081 -0.259121,0.02429 -0.134959,0.0162 -0.275316,0.03779 -0.140358,0.02159 -0.269918,0.04319 -0.126862,0.02159 -0.23213,0.04589 -0.102568,0.02159 -0.16465,0.03779 -0.199739,0.05668 -0.337397,0.102569 -0.134959,0.04589 -0.245625,0.04589 -0.07558,0 -0.126862,-0.03779 -0.04859,-0.04049 -0.07828,-0.09177 -0.02699,-0.05398 -0.03779,-0.105268 -0.0108,-0.05129 -0.0108,-0.07558 0,-0.04319 0.0135,-0.110667 0.0162,-0.06748 0.03509,-0.148455 0.02159,-0.08097 0.04049,-0.170048 0.02159,-0.09177 0.03239,-0.178146 0.0027,-0.0135 0.0108,-0.08637 0.0081,-0.07288 0.01889,-0.175447 0.0135,-0.102569 0.02699,-0.218634 0.0135,-0.118764 0.02699,-0.224032 0.0135,-0.105268 0.02159,-0.180845 0.0108,-0.07828 0.0162,-0.09717 0.02429,-0.19704 0.04589,-0.42917 0.02429,-0.232129 0.04859,-0.475055 0.02429,-0.242926 0.04589,-0.485853 0.02429,-0.245625 0.04859,-0.466958 0.0081,-0.09177 0.03509,-0.148455 0.02699,-0.05668 0.06748,-0.08907 0.04049,-0.03239 0.09177,-0.04319 0.05129,-0.0135 0.110667,-0.0135 0.04859,0 0.08637,0.01889 0.04049,0.01889 0.06748,0.05128 0.02969,0.03239 0.04589,0.07288 0.0162,0.03779 0.0162,0.07828 0,0.16195 -0.04049,0.367088 -0.04049,0.202438 -0.06748,0.439966 -0.04049,0.353593 -0.08637,0.707185 -0.04319,0.350894 -0.08367,0.655901 -0.03779,0.302308 -0.06478,0.537137 -0.02429,0.232129 -0.02429,0.345495 0,0.09447 0.02699,0.12956 0.02969,0.03239 0.107967,0.03239 0.07018,0 0.170048,-0.0108 0.102569,-0.0135 0.213235,-0.02969 0.113366,-0.0189 0.221333,-0.03509 0.107967,-0.01889 0.188943,-0.03239 0.08907,-0.0135 0.199739,-0.02159 0.113365,-0.0108 0.242926,-0.01619 0.129561,-0.0054 0.272617,-0.0108 0.143057,-0.0054 0.288812,-0.0135 0.02429,0 0.06478,-0.0162 0.04049,-0.01619 0.08367,-0.03509 0.04319,-0.0189 0.07828,-0.03239 0.03779,-0.01619 0.05938,-0.01619 0.05668,0 0.102569,0.02429 0.04858,0.02429 0.08098,0.06478 0.03509,0.03779 0.05398,0.08367 0.01889,0.04589 0.01889,0.08637 z M 17.3978,4.5038151 q 0.03947,-0.1447323 0.08881,-0.3684095 0.05263,-0.2269665 0.108549,-0.4901161 0.05592,-0.2631496 0.111838,-0.5493248 0.05592,-0.2861752 0.101971,-0.5559036 0.04605,-0.2730177 0.07895,-0.506563 0.03618,-0.2368346 0.04934,-0.4013031 V 1.4512796 q 0,-0.059209 0.01645,-0.1414429 0.01974,-0.085524 0.06908,-0.1611791 0.05263,-0.078945 0.144732,-0.1315748 0.0921,-0.05263 0.243414,-0.05263 0.121706,0 0.197362,0.0460512 0.07894,0.046051 0.131575,0.1315748 0.05263,0.082234 0.08881,0.2006516 0.03618,0.115128 0.07565,0.2598602 0.03618,0.1348642 0.124996,0.3355158 0.08881,0.1973622 0.213809,0.4374862 0.128286,0.240124 0.286175,0.5098524 0.16118,0.2697283 0.338806,0.542746 0.177626,0.2730178 0.36512,0.5394567 0.190783,0.266439 0.378277,0.4999843 0.04276,-0.1743366 0.08223,-0.3716988 0.04276,-0.1973622 0.07895,-0.3980138 0.03947,-0.2006516 0.07237,-0.391435 0.03618,-0.1940729 0.0625,-0.3585414 0.0296,-0.1644685 0.04934,-0.2927539 0.02303,-0.1282855 0.03618,-0.1973622 0.04605,-0.2697284 0.08223,-0.4736693 0.03947,-0.203941 0.0625,-0.381567 0.02632,-0.1776259 0.03947,-0.3486732 0.01316,-0.1710472 0.01316,-0.37498818 0,-0.0526299 0.0099,-0.11512795 0.0099,-0.062498 0.02632,-0.12170669 0.01974,-0.0592087 0.04605,-0.11183859 0.0296,-0.0526299 0.0625,-0.0822343 0.05921,-0.0559193 0.108549,-0.0855236 0.04934,-0.0296043 0.0921,-0.0427618 0.04605,-0.0131575 0.0921,-0.0164469 0.04605,-0.003289 0.10197,-0.003289 0.118417,0 0.184205,0.0559193 0.06908,0.0526299 0.10197,0.13815354 0.03618,0.0855236 0.04276,0.1874941 0.0099,0.0986811 0.0099,0.19407283 0,0.0296043 -0.01316,0.10854922 -0.01316,0.0789448 -0.03289,0.17762602 -0.01645,0.098681 -0.03947,0.2006515 -0.02303,0.1019705 -0.04276,0.177626 -0.138154,0.5230099 -0.240124,0.9901004 -0.09868,0.4670906 -0.174337,0.8782618 -0.07237,0.4078819 -0.124996,0.7598445 -0.04934,0.3486733 -0.08552,0.6348485 -0.0033,0.042762 -0.0099,0.078945 -0.0033,0.036183 -0.0066,0.082234 0,0.042762 -0.0033,0.1019705 0,0.059209 0,0.1480216 0,0.1710473 -0.05592,0.266439 -0.05263,0.092102 -0.134864,0.1348642 -0.07895,0.046051 -0.171048,0.05263 -0.08881,0.00987 -0.157889,0.00987 -0.141443,0 -0.226967,-0.062498 -0.08552,-0.059209 -0.161179,-0.1677579 -0.07237,-0.1118386 -0.1546,-0.2631496 -0.07894,-0.151311 -0.213809,-0.328937 Q 19.651025,4.3557956 19.272748,3.790024 18.89447,3.2209629 18.503035,2.5170377 q -0.0625,0.292754 -0.115128,0.6151122 -0.05263,0.3190689 -0.09868,0.6315591 -0.04276,0.3124902 -0.07895,0.5986654 -0.03289,0.2861752 -0.0625,0.5131417 0,0.085524 -0.01316,0.1874941 -0.0099,0.1019705 -0.02632,0.1940728 -0.01316,0.088813 -0.02961,0.1546004 -0.01316,0.065787 -0.01974,0.082234 -0.01645,0.039472 -0.05592,0.098681 -0.03618,0.059209 -0.08881,0.1118386 -0.04934,0.055919 -0.115128,0.092102 -0.0625,0.039472 -0.131575,0.039472 -0.128285,0 -0.20723,-0.036183 -0.07895,-0.036183 -0.124996,-0.1052599 -0.04605,-0.069077 -0.0625,-0.1710472 -0.01645,-0.1052598 -0.01645,-0.240124 0,-0.055919 0.0099,-0.1447323 0.01316,-0.092102 0.03289,-0.2006516 0.01974,-0.1085492 0.04605,-0.2203878 0.02632,-0.1151279 0.05263,-0.213809 z M 15.786008,4.3492147 q 0,0.1315748 0.0099,0.2368346 0.0099,0.1019705 0.01974,0.1907835 0.0099,0.085524 0.01974,0.1644685 0.0099,0.078945 0.0099,0.1644685 0,0.098681 -0.02632,0.2170984 -0.02632,0.1184173 -0.06908,0.2203878 -0.01316,0.029604 -0.05263,0.059209 -0.03618,0.029604 -0.0921,0.05263 -0.05263,0.023026 -0.115128,0.036183 -0.0625,0.013158 -0.128285,0.013158 -0.111839,0 -0.190784,-0.042762 -0.07895,-0.042762 -0.128285,-0.1184173 -0.04934,-0.078945 -0.07237,-0.1842047 -0.01974,-0.1085492 -0.01974,-0.240124 0,-0.1907835 0.01974,-0.4341969 0.01974,-0.2467027 0.04934,-0.506563 0.02961,-0.2631496 0.06579,-0.5197204 0.03618,-0.2565709 0.06579,-0.47038 0.03289,-0.213809 0.05592,-0.3618307 0.02632,-0.1480216 0.03289,-0.1907834 0.0033,-0.016447 0.01316,-0.078945 0.01316,-0.062498 0.02961,-0.1447323 0.01974,-0.085524 0.03947,-0.1809154 0.02303,-0.095392 0.03947,-0.1809153 0.01974,-0.085524 0.03289,-0.1480217 0.01645,-0.065787 0.01974,-0.088813 -0.0099,0.013158 -0.06579,0.082234 -0.05263,0.069077 -0.131575,0.1743366 -0.07894,0.1019705 -0.180915,0.2302559 -0.09868,0.1282854 -0.200652,0.2631496 -0.10197,0.1315748 -0.200651,0.2598603 -0.09539,0.124996 -0.174337,0.2269665 -0.07895,0.1019705 -0.131575,0.1677579 -0.04934,0.065787 -0.05592,0.075655 -0.05263,0.069077 -0.134864,0.177626 -0.08223,0.1052598 -0.184205,0.2236771 -0.09868,0.1184174 -0.213809,0.2368347 -0.111838,0.1184173 -0.230256,0.213809 -0.115128,0.092102 -0.230256,0.1513111 -0.115128,0.059209 -0.217098,0.059209 -0.10526,0 -0.194073,-0.065787 -0.08881,-0.065787 -0.174336,-0.2170984 -0.08552,-0.151311 -0.174337,-0.3947244 -0.08552,-0.2467028 -0.187494,-0.6052441 -0.04276,-0.1546004 -0.07237,-0.2795965 -0.02961,-0.124996 -0.05592,-0.2302559 -0.02303,-0.1052598 -0.05263,-0.1940728 -0.02631,-0.092102 -0.06579,-0.1809154 -0.0066,0.029604 -0.0296,0.1217067 -0.01974,0.092102 -0.04934,0.2203878 -0.02632,0.1249961 -0.05921,0.2697284 -0.03289,0.1447322 -0.0625,0.2795964 -0.0296,0.1315748 -0.05592,0.2368347 -0.02303,0.1052598 -0.03618,0.151311 -0.06908,0.2565709 -0.138153,0.5230098 -0.06908,0.266439 -0.128286,0.5197205 -0.05921,0.2499921 -0.10526,0.4736693 -0.04605,0.2203878 -0.06908,0.3881457 -0.0066,0.046051 -0.05592,0.095392 -0.04934,0.046051 -0.115128,0.085524 -0.0625,0.039473 -0.128285,0.065787 -0.0625,0.026315 -0.09868,0.026315 -0.08552,0 -0.161179,-0.042762 -0.07566,-0.042762 -0.134865,-0.1052599 -0.05592,-0.065787 -0.08881,-0.1381535 -0.03289,-0.075655 -0.03289,-0.1414429 0.0033,-0.042762 0.01316,-0.1282855 0.01316,-0.085524 0.03289,-0.1940728 0.01974,-0.1085492 0.04934,-0.2335453 0.02961,-0.124996 0.06908,-0.2467027 0.124996,-0.3980138 0.21052,-0.6874784 0.08881,-0.2927539 0.15789,-0.5394567 0.06908,-0.2467027 0.131575,-0.4835374 0.0625,-0.2368346 0.141442,-0.5262992 0.03618,-0.1282854 0.0625,-0.2927539 0.02961,-0.1644685 0.05263,-0.3256477 0.02303,-0.1611791 0.03618,-0.2993326 0.01316,-0.1381536 0.01645,-0.2138091 0.0033,-0.0986811 0.05263,-0.16775788 0.05263,-0.0690768 0.131575,-0.11183858 0.08223,-0.0460512 0.184205,-0.0657874 0.10197,-0.0230256 0.203941,-0.0230256 0.08552,0 0.157889,0.0657874 0.07566,0.062498 0.131575,0.14802165 0.05921,0.0822343 0.09539,0.16775791 0.03947,0.082234 0.04934,0.124996 l -0.0033,-0.00658 q 0.01645,0.049341 0.05263,0.1644685 0.03618,0.115128 0.08552,0.2730177 0.05263,0.1546004 0.111838,0.3388051 0.05921,0.1842048 0.121707,0.3749882 0.0625,0.1874941 0.121707,0.3716989 0.05921,0.1809153 0.108549,0.3322263 0.05263,0.1480217 0.08881,0.2565709 0.03618,0.1052598 0.05263,0.1414429 0.07237,-0.072366 0.203941,-0.2236771 0.134864,-0.1546004 0.289464,-0.3453839 0.154601,-0.1907835 0.31578,-0.3947244 0.161179,-0.203941 0.289464,-0.3749882 0.111839,-0.1480217 0.240124,-0.3157795 0.131575,-0.1677579 0.26315,-0.3355158 0.134864,-0.1677579 0.266439,-0.3190689 0.131575,-0.15131102 0.246703,-0.26972835 0.115128,-0.11841732 0.203941,-0.18749409 0.0921,-0.0690768 0.148021,-0.0690768 0.08224,0 0.177626,0.0394724 0.09539,0.0361831 0.174337,0.0953917 0.08223,0.0559193 0.134864,0.11841732 0.05592,0.062498 0.05592,0.11183858 0,0.0197362 -0.01645,0.11512794 -0.01316,0.095392 -0.03618,0.2368347 -0.01974,0.1381535 -0.04934,0.3059114 -0.0296,0.1677579 -0.05921,0.3322264 -0.01974,0.1217067 -0.05921,0.3684094 -0.03618,0.2467028 -0.08223,0.5690611 -0.04276,0.3223582 -0.08881,0.7006358 -0.04605,0.3749882 -0.08881,0.7598445 z M 98.30654,13.072499 q 0,0.289267 -0.111257,0.572972 -0.105694,0.278142 -0.283705,0.52847 -0.178011,0.250328 -0.41165,0.461716 -0.233639,0.211388 -0.483967,0.361585 -0.250328,0.150197 -0.500656,0.233639 -0.250328,0.08901 -0.467279,0.08901 -0.339333,0 -0.495093,-0.166885 -0.155759,-0.161323 -0.155759,-0.439465 0,-0.133508 0.03894,-0.255891 0.0445,-0.116819 0.122382,-0.205825 0.07788,-0.09457 0.189137,-0.144634 0.116819,-0.05563 0.261453,-0.05563 h 0.100131 q 0.111257,0 0.250328,-0.03338 0.139071,-0.03338 0.322645,-0.183574 0.161323,-0.133508 0.233639,-0.317082 0.07788,-0.189137 0.07788,-0.328208 0,-0.122382 -0.06119,-0.228076 -0.06119,-0.111257 -0.161322,-0.216951 -0.100132,-0.105694 -0.23364,-0.205825 -0.127945,-0.105694 -0.272579,-0.211388 -0.189137,-0.144634 -0.383836,-0.300394 -0.189137,-0.161322 -0.344896,-0.339333 -0.15576,-0.183574 -0.250328,-0.383836 -0.09457,-0.205825 -0.09457,-0.439465 0,-0.233639 0.08344,-0.48953 0.08344,-0.25589 0.222514,-0.5062183 0.144634,-0.2503278 0.328207,-0.4728415 0.183574,-0.2225137 0.378274,-0.3949618 0.200262,-0.1724481 0.400524,-0.2725792 0.200263,-0.1001312 0.372711,-0.1001312 0.283705,0 0.428339,0.1390711 0.150196,0.139071 0.150196,0.4450273 0,0.1446339 -0.07788,0.3003935 -0.07232,0.1501967 -0.189137,0.3003934 -0.111257,0.1446339 -0.255891,0.2837047 -0.139071,0.139071 -0.272579,0.255891 -0.11682,0.105694 -0.222514,0.172448 -0.100131,0.06675 -0.189136,0.144634 0.05563,0.100131 0.144633,0.205825 0.08901,0.100131 0.1947,0.200262 0.105694,0.09457 0.211388,0.183574 0.111257,0.08901 0.205825,0.166885 0.205825,0.166886 0.417213,0.35046 0.211388,0.183573 0.383836,0.389398 0.178011,0.200263 0.289268,0.428339 0.111257,0.222514 0.111257,0.478405 z M 91.542126,9.506717 q 0,-0.1223825 -0.02781,-0.2336393 -0.02225,-0.1112569 -0.07788,-0.1390711 -0.189137,0 -0.406088,0.1613224 -0.211388,0.1613224 -0.406087,0.4617159 -0.1947,0.2948311 -0.350459,0.7176071 -0.150197,0.417213 -0.222514,0.928994 0.261453,-0.194699 0.522907,-0.406087 0.267016,-0.216951 0.478404,-0.450591 0.216951,-0.233639 0.350459,-0.48953 0.139072,-0.2614532 0.139072,-0.550721 z m 4.339016,1.023563 q 0,0.100131 -0.150197,0.367147 -0.289267,0.417214 -0.645289,0.828864 -0.350459,0.406087 -0.750984,0.773235 -0.400524,0.367148 -0.834426,0.68423 -0.433902,0.311519 -0.878929,0.539595 -0.445028,0.228077 -0.890055,0.361585 -0.439464,0.127945 -0.86224,0.127945 -0.951246,0 -1.485279,-0.534033 -0.52847,-0.539595 -0.52847,-1.624349 0,-0.433902 0.06119,-0.851115 0.06119,-0.422776 0.200262,-0.828864 0.144634,-0.4116499 0.372711,-0.8066117 0.228076,-0.3949618 0.561847,-0.7676722 0.122382,-0.139071 0.283705,-0.2670164 0.166885,-0.1279454 0.350459,-0.2280765 0.189136,-0.1001312 0.389399,-0.1613224 0.205825,-0.061191 0.406087,-0.061191 0.294831,0 0.506219,0.1112568 0.216951,0.1112569 0.356022,0.3003935 0.139071,0.1835738 0.205825,0.4283388 0.06675,0.2392022 0.06675,0.5062186 0,0.495093 -0.367148,1.0291255 -0.367147,0.52847 -1.018,1.084754 -0.211388,0.178011 -0.48953,0.389399 -0.278142,0.205825 -0.623038,0.467279 0.01113,0.139071 0.07788,0.261453 0.07232,0.122383 0.189136,0.216951 0.122383,0.08901 0.289268,0.144634 0.166885,0.05007 0.378273,0.05007 0.27258,0 0.578536,-0.06675 0.305956,-0.07232 0.60635,-0.189137 0.300393,-0.11682 0.584098,-0.267016 0.283705,-0.15576 0.517344,-0.322645 0.411651,-0.294831 0.789924,-0.634164 0.383836,-0.344896 0.739858,-0.700918 l 0.294831,-0.294831 q 0.305956,-0.272579 0.522907,-0.272579 0.111257,0 0.150196,0.07788 0.0445,0.07232 0.0445,0.127945 z M 87.459,9.4789028 q 0,0.089005 -0.03894,0.2447651 -0.03338,0.1501967 -0.07788,0.3337701 -0.0445,0.183574 -0.08344,0.383836 -0.03338,0.200263 -0.03338,0.394962 0,1.051377 -0.06119,1.841301 -0.05563,0.789923 -0.183574,1.396273 -0.122382,0.60635 -0.311519,1.073629 -0.183574,0.467278 -0.445027,0.873366 -0.172448,0.278142 -0.428339,0.522907 -0.250328,0.244765 -0.56741,0.428339 -0.311519,0.183574 -0.667541,0.289268 -0.356022,0.105694 -0.739858,0.105694 -0.29483,0 -0.534033,-0.03338 -0.233639,-0.03338 -0.439464,-0.105694 -0.205825,-0.07232 -0.394962,-0.178011 -0.189137,-0.105694 -0.389399,-0.250328 -0.250328,-0.183574 -0.389399,-0.356022 -0.133508,-0.172448 -0.133508,-0.428339 0,-0.08901 0.02781,-0.183574 0.02781,-0.09457 0.09457,-0.172448 0.06675,-0.07232 0.172448,-0.122382 0.105694,-0.05007 0.261453,-0.05007 0.03338,0 0.08901,0.01669 0.06119,0.02225 0.122382,0.05563 0.06119,0.03338 0.122383,0.07788 0.06119,0.0445 0.111257,0.09457 0.07232,0.06119 0.150196,0.139071 0.07788,0.07788 0.216951,0.161323 0.08344,0.05007 0.172448,0.09457 0.08901,0.05007 0.211388,0.08901 0.122383,0.03894 0.283705,0.06119 0.161323,0.02781 0.383836,0.02781 0.205825,0 0.445028,-0.11682 0.244765,-0.111257 0.478404,-0.339333 0.233639,-0.222514 0.428339,-0.56741 0.200262,-0.339333 0.317082,-0.795486 0.05006,-0.189137 0.100131,-0.450591 0.05007,-0.261453 0.09457,-0.550721 0.05007,-0.294831 0.08344,-0.584098 0.03894,-0.294831 0.05563,-0.545159 -0.21695,0.255891 -0.522907,0.545159 -0.305956,0.289267 -0.673104,0.534032 -0.361584,0.239203 -0.778798,0.400525 -0.41165,0.15576 -0.856677,0.15576 -0.417213,0 -0.717607,-0.122383 -0.300393,-0.127945 -0.495093,-0.361585 -0.189136,-0.233639 -0.278142,-0.556284 -0.08901,-0.328208 -0.08901,-0.728732 0,-0.111257 0.02781,-0.372711 0.03338,-0.261453 0.08901,-0.595224 0.05563,-0.33377 0.133509,-0.700918 0.08344,-0.367147 0.189136,-0.6842293 0.03338,-0.1001311 0.09457,-0.2113879 0.06675,-0.1168197 0.127945,-0.2058252 0.144634,-0.2336394 0.294831,-0.3115191 0.155759,-0.083443 0.37271,-0.083443 0.194699,0 0.289268,0.094568 0.09457,0.089006 0.139071,0.2614536 0.01669,0.03894 0.01669,0.094568 0.0056,0.050066 0.0056,0.1223825 0,0.07788 -0.01669,0.178011 -0.01669,0.094568 -0.0445,0.1946994 -0.02225,0.100131 -0.05563,0.194699 -0.02781,0.08901 -0.05563,0.15576 -0.08344,0.205825 -0.15576,0.428339 -0.07232,0.222513 -0.122382,0.439464 -0.05007,0.216951 -0.08344,0.422776 -0.02781,0.200263 -0.02781,0.361585 0,0.400525 0.150197,0.617475 0.150197,0.211388 0.422776,0.211388 0.283705,0 0.511781,-0.06675 0.228077,-0.07232 0.433902,-0.189136 0.205825,-0.122383 0.389399,-0.278142 0.189136,-0.161323 0.389399,-0.333771 0.07232,-0.06675 0.166885,-0.172448 0.09457,-0.111257 0.189137,-0.233639 0.100131,-0.122383 0.189136,-0.244765 0.08901,-0.127946 0.150197,-0.228077 0.183574,-0.300393 0.233639,-0.589661 0.05563,-0.289268 0.07788,-0.5562842 0.01669,-0.2169508 0.0445,-0.4172131 0.02781,-0.2002624 0.133508,-0.4060875 0.03894,-0.072317 0.08901,-0.1446339 0.05563,-0.072317 0.133508,-0.1279454 0.08344,-0.061191 0.194699,-0.094568 0.11682,-0.03894 0.27258,-0.03894 0.116819,0 0.211388,0.07788 0.09457,0.072317 0.161322,0.1891366 0.07232,0.1112569 0.105694,0.2503279 0.03894,0.1335082 0.03894,0.2503279 z m -4.884172,0.2225137 q 0,0.1557596 -0.105694,0.3393335 -0.105694,0.178011 -0.289268,0.37271 -0.17801,0.189137 -0.41165,0.383836 -0.228076,0.189137 -0.478404,0.378274 -0.250328,0.183573 -0.500656,0.356021 -0.244765,0.172449 -0.461716,0.317082 -0.07788,0.05563 -0.29483,0.200263 -0.211388,0.144634 -0.489531,0.33377 -0.278142,0.189137 -0.595224,0.406088 -0.311519,0.211388 -0.595224,0.406087 -0.278142,0.189137 -0.48953,0.339334 -0.211388,0.150196 -0.29483,0.211388 -0.11682,0.08901 -0.216951,0.183573 -0.100131,0.08901 -0.205825,0.183574 -0.100132,0.09457 -0.228077,0.200262 -0.122382,0.105694 -0.289268,0.228077 -0.317082,0.239202 -0.767672,0.239202 -0.111257,0 -0.233639,-0.02781 -0.122383,-0.02225 -0.228077,-0.07788 -0.100131,-0.05563 -0.166885,-0.150197 -0.06675,-0.09457 -0.06675,-0.239202 0,-0.111257 0.08344,-0.239202 0.08901,-0.127945 0.222514,-0.255891 0.139071,-0.127945 0.300394,-0.244765 0.166885,-0.122382 0.322644,-0.222513 0.15576,-0.105694 0.278143,-0.178011 0.122382,-0.07788 0.17801,-0.111257 0.255891,-0.161323 0.445028,-0.283705 0.194699,-0.127946 0.356022,-0.255891 0.161322,-0.127945 0.305956,-0.278142 0.150197,-0.15576 0.311519,-0.367148 0.08901,-0.116819 0.172448,-0.261453 0.08901,-0.144634 0.15576,-0.305956 0.07232,-0.161323 0.111257,-0.322645 0.0445,-0.166885 0.0445,-0.317082 0,-0.250328 -0.0445,-0.428339 -0.03894,-0.178011 -0.105694,-0.2892678 -0.06675,-0.1168197 -0.15576,-0.1724481 -0.08344,-0.055628 -0.172448,-0.055628 -0.222514,0 -0.445027,0.1056939 -0.222514,0.105694 -0.433902,0.278142 -0.211388,0.172448 -0.417213,0.394962 -0.200262,0.222513 -0.378273,0.456153 -0.178011,0.228076 -0.333771,0.456153 -0.155759,0.222513 -0.278142,0.406087 -0.250328,0.367148 -0.383836,0.700918 -0.133508,0.333771 -0.144634,0.572973 l 0.02225,0.461716 q -0.01112,0.233639 -0.189136,0.361584 -0.178011,0.127946 -0.428339,0.127946 -0.322645,0 -0.478404,-0.339334 -0.150197,-0.339333 -0.150197,-1.090317 0,-0.367147 0.03894,-0.795486 0.03894,-0.433902 0.09457,-0.890055 0.06119,-0.461716 0.133508,-0.923431 0.07232,-0.4672787 0.144634,-0.9011804 0.01669,-0.1001312 0.05007,-0.3282077 0.03894,-0.2336393 0.08901,-0.52847 0.05007,-0.2948306 0.100131,-0.6174754 0.05563,-0.3226448 0.100131,-0.6119126 0.05007,-0.2892678 0.08901,-0.5062186 0.03894,-0.2169509 0.05563,-0.3003935 0.03338,-0.1613224 0.111257,-0.3003934 0.08344,-0.1390711 0.183574,-0.2392022 0.100131,-0.1001312 0.205825,-0.1557596 0.111257,-0.055628 0.205825,-0.055628 0.205825,0 0.339334,0.050065 0.139071,0.044503 0.21695,0.1335082 0.08344,0.083443 0.11682,0.211388 0.03338,0.1279454 0.03338,0.2892678 0,0.00556 -0.02225,0.1112569 -0.01669,0.1001311 -0.05007,0.2503278 -0.02781,0.1446339 -0.06119,0.317082 -0.03338,0.1724481 -0.06675,0.3226449 -0.02781,0.1501967 -0.05007,0.2558907 -0.01669,0.1001311 -0.02225,0.1112568 -0.09457,0.4839673 -0.205825,0.9568088 -0.111257,0.4672787 -0.216951,0.9011804 -0.100131,0.4283388 -0.183574,0.7954861 -0.08344,0.367148 -0.11682,0.639727 0.133509,-0.222514 0.317082,-0.456153 0.189137,-0.239202 0.400525,-0.4617158 0.211388,-0.2225137 0.428339,-0.4172131 0.216951,-0.1946995 0.406087,-0.3282077 0.333771,-0.2392022 0.634164,-0.350459 0.305957,-0.1112569 0.623039,-0.1112569 0.350459,0 0.645289,0.1668853 0.300394,0.1668852 0.517345,0.4339016 0.21695,0.2670165 0.339333,0.5952241 0.122382,0.3282075 0.122382,0.6452895 0,0.05563 -0.01112,0.150197 -0.01113,0.09457 -0.03894,0.205825 -0.02781,0.111257 -0.07232,0.233639 -0.0445,0.11682 -0.111257,0.216951 0.283705,-0.205825 0.595224,-0.417213 0.317082,-0.216951 0.628601,-0.433902 0.317082,-0.222514 0.617476,-0.445027 0.305956,-0.2225136 0.572973,-0.4394644 0.139071,-0.1168197 0.267016,-0.1557596 0.133508,-0.03894 0.172448,-0.03894 0.161322,0.011126 0.216951,0.1223825 0.05563,0.1112569 0.05563,0.2058252 z m -7.832485,0.2392022 q 0,0.061191 -0.07232,0.2336393 -0.07232,0.166885 -0.200262,0.406088 -0.122383,0.233639 -0.300393,0.517344 -0.172449,0.278142 -0.378274,0.56741 -0.205825,0.289267 -0.439464,0.56741 -0.23364,0.272579 -0.472842,0.48953 -0.350459,0.317082 -0.734295,0.522907 -0.378273,0.200262 -0.762109,0.200262 -0.283705,0 -0.550722,-0.133508 -0.261453,-0.133508 -0.478404,-0.378273 -0.211388,-0.250328 -0.361585,-0.595224 -0.144634,-0.350459 -0.200262,-0.784361 -0.122383,0.205825 -0.317082,0.45059 -0.189137,0.239202 -0.41165,0.478404 -0.222514,0.239203 -0.456153,0.456153 -0.228077,0.216951 -0.428339,0.367148 -0.183574,0.133508 -0.400525,0.261454 -0.211388,0.127945 -0.433901,0.222513 -0.216951,0.09457 -0.422776,0.15576 -0.205826,0.05563 -0.367148,0.05563 -0.289268,0 -0.495093,-0.100131 -0.200262,-0.105694 -0.33377,-0.272579 -0.127946,-0.166885 -0.189137,-0.378273 -0.05563,-0.211388 -0.05563,-0.433902 0,-0.305956 0.09457,-0.695355 0.09457,-0.394962 0.255891,-0.806612 0.166885,-0.411651 0.389398,-0.80105 0.222514,-0.394961 0.478405,-0.7009177 0.33377,-0.3949617 0.64529,-0.6731038 0.311519,-0.283705 0.617475,-0.4617159 0.305956,-0.178011 0.617475,-0.2614536 0.31152,-0.083443 0.634164,-0.083443 0.216951,0 0.411651,0.105694 0.194699,0.1001311 0.300393,0.2781421 0.05007,-0.2336394 0.105694,-0.5062186 0.05563,-0.2781421 0.105694,-0.5507214 0.05563,-0.2781421 0.100131,-0.52847 0.0445,-0.2503278 0.07232,-0.4339016 0.03338,-0.2280765 0.06675,-0.4617159 0.03894,-0.2392022 0.08344,-0.4450274 0.0445,-0.2113879 0.100131,-0.3727104 0.05563,-0.1613224 0.127946,-0.244765 0.0445,-0.050066 0.116819,-0.094568 0.07232,-0.050066 0.150197,-0.083443 0.08344,-0.03894 0.161322,-0.061191 0.07788,-0.022251 0.133509,-0.022251 0.150196,0 0.250327,0.07788 0.100132,0.072317 0.15576,0.1946995 0.05563,0.1223825 0.07788,0.2781421 0.02225,0.1501967 0.02225,0.3059563 0,0.03894 -0.02225,0.1835738 -0.02225,0.139071 -0.06119,0.3170819 -0.03338,0.1724481 -0.07788,0.3560219 -0.03894,0.178011 -0.08344,0.3003935 -0.111257,0.3226448 -0.228076,0.8066121 -0.11682,0.4839672 -0.216951,1.0235629 -0.09457,0.5395956 -0.15576,1.0847541 -0.06119,0.5451581 -0.06119,0.9957481 0,0.294831 0.05563,0.56741 0.05563,0.272579 0.150197,0.483967 0.09457,0.205826 0.216951,0.333771 0.127945,0.122382 0.267016,0.122382 0.255891,0 0.539596,-0.183573 0.289268,-0.183574 0.584098,-0.495093 0.300394,-0.317082 0.595224,-0.72317 0.294831,-0.41165 0.561847,-0.86224 0.07232,-0.1168195 0.139072,-0.2225135 0.06675,-0.1112569 0.144633,-0.1891367 0.07788,-0.083443 0.166886,-0.1279453 0.09457,-0.050066 0.211388,-0.050066 0.111257,0 0.183573,0.094568 0.07788,0.094568 0.07788,0.3560219 z m -5.106689,-0.055628 q 0,-0.050066 -0.03338,-0.1390711 -0.03338,-0.094568 -0.09457,-0.1835738 -0.06119,-0.089005 -0.144634,-0.1557595 -0.08344,-0.066754 -0.189136,-0.066754 -0.183574,0 -0.35046,0.061191 -0.166885,0.055628 -0.328207,0.1613224 -0.15576,0.1001312 -0.311519,0.2447651 -0.150197,0.139071 -0.305957,0.3059562 -0.116819,0.122382 -0.250328,0.317082 -0.133508,0.189136 -0.272579,0.417213 -0.133508,0.222514 -0.255891,0.472841 -0.122382,0.244766 -0.222513,0.483968 -0.09457,0.233639 -0.150197,0.445027 -0.05563,0.205825 -0.05563,0.356022 0,0.161322 0.03338,0.228076 0.03894,0.06675 0.105694,0.06675 0.116819,0 0.250328,-0.05007 0.139071,-0.05563 0.283705,-0.144634 0.150196,-0.09457 0.305956,-0.216951 0.161322,-0.127945 0.317082,-0.272579 0.189136,-0.172448 0.383836,-0.378273 0.200262,-0.205825 0.383836,-0.422776 0.189137,-0.216951 0.350459,-0.433902 0.161322,-0.222514 0.283705,-0.422776 0.122383,-0.200262 0.194699,-0.37271 0.07232,-0.178011 0.07232,-0.3003934 z m -6.936862,1.1070053 q 0,-0.139071 -0.01669,-0.289268 -0.01113,-0.150197 -0.05563,-0.278142 -0.0445,-0.133508 -0.122383,-0.228077 -0.07788,-0.100131 -0.205825,-0.133508 -0.1947,-0.05007 -0.317082,-0.1056938 -0.122383,-0.061191 -0.1947,-0.1112568 -0.07232,-0.050066 -0.100131,-0.083443 -0.02781,-0.033377 -0.03894,-0.033377 -0.0445,0 -0.127945,0.07788 -0.07788,0.072317 -0.178011,0.1891366 -0.09457,0.11682 -0.200262,0.250328 -0.100131,0.133508 -0.1947,0.250328 -0.116819,0.144634 -0.222513,0.283705 -0.100132,0.133508 -0.200263,0.283705 -0.09457,0.144634 -0.189136,0.305956 -0.09457,0.161322 -0.1947,0.356022 -0.08901,0.178011 -0.133508,0.439464 -0.0445,0.255891 -0.0445,0.483968 0,0.09457 0.02225,0.194699 0.02225,0.09457 0.06675,0.172448 0.0445,0.07788 0.116819,0.127946 0.07232,0.05007 0.178011,0.05007 0.255891,0 0.428339,-0.02225 0.172448,-0.02781 0.322645,-0.08901 0.150197,-0.06675 0.300393,-0.172448 0.15576,-0.111257 0.372711,-0.272579 0.100131,-0.07788 0.200262,-0.178011 0.100131,-0.105694 0.200262,-0.222514 0.100132,-0.122382 0.1947,-0.250327 0.09457,-0.133509 0.172448,-0.255891 0.0445,-0.06675 0.07232,-0.172448 0.03338,-0.111257 0.05007,-0.222514 0.02225,-0.111257 0.02781,-0.205825 0.01112,-0.09457 0.01112,-0.133508 z m 4.316766,-1.2516396 q 0,0.1001311 -0.0445,0.211388 -0.03894,0.1112566 -0.111257,0.2169506 -0.07232,0.100131 -0.166885,0.189137 -0.08901,0.08901 -0.183574,0.150197 -0.200262,0.133508 -0.584098,0.233639 -0.378273,0.100131 -0.917869,0.100131 -0.15576,0 -0.333771,-0.02225 -0.172448,-0.02225 -0.356022,-0.06119 -0.17801,-0.03894 -0.356021,-0.09457 -0.172449,-0.06119 -0.333771,-0.133508 0.03338,0.05007 0.05563,0.139071 0.02225,0.08344 0.02782,0.178011 0.01112,0.09457 0.01112,0.183574 0.0056,0.08344 0.0056,0.133508 0,0.356022 -0.127945,0.712044 -0.122383,0.350459 -0.328208,0.673104 -0.205825,0.322644 -0.467279,0.600786 -0.261453,0.27258 -0.534032,0.472842 -0.216951,0.161322 -0.483968,0.278142 -0.261453,0.11682 -0.556284,0.1947 -0.289268,0.07788 -0.600787,0.116819 -0.305956,0.03894 -0.623038,0.03894 -0.261454,0 -0.500656,-0.127945 -0.239202,-0.127946 -0.422776,-0.328208 -0.178011,-0.205825 -0.289268,-0.461716 -0.105694,-0.25589 -0.105694,-0.506218 0,-0.445028 0.11682,-0.856678 0.122383,-0.41165 0.322645,-0.795486 0.200262,-0.383836 0.467279,-0.750984 0.267016,-0.37271 0.561847,-0.7342952 0.172448,-0.211388 0.394961,-0.4116503 0.222514,-0.2002623 0.467279,-0.3560219 0.250328,-0.1613224 0.500656,-0.2558907 0.255891,-0.094568 0.48953,-0.094568 0.1947,0 0.333771,0.044503 0.144633,0.044503 0.261453,0.1279454 0.122383,0.07788 0.23364,0.1946995 0.111256,0.1168196 0.233639,0.2614535 l 0.11682,0.1279454 q 0.0445,0.044503 0.239202,0.1335082 0.200262,0.089006 0.472841,0.1780109 0.27258,0.083443 0.572973,0.1501968 0.300393,0.066754 0.545159,0.066754 0.250327,0 0.472841,-0.00556 0.222514,-0.00556 0.445027,-0.03894 0.228077,-0.03894 0.472842,-0.1112568 0.250328,-0.07788 0.550721,-0.211388 0.02782,0.050066 0.03894,0.1279454 0.01669,0.07788 0.01669,0.1223825 z M 60.050879,11.6651 q 0,0.07232 -0.122383,0.216951 -0.122382,0.144633 -0.350459,0.283704 -0.228076,0.139071 -0.550721,0.244765 -0.322645,0.105694 -0.728732,0.105694 -0.283705,0 -0.522908,-0.05007 -0.233639,-0.05007 -0.41165,-0.105694 -0.172448,-0.06119 -0.283705,-0.105694 -0.105694,-0.05007 -0.133508,-0.05007 -0.03338,0 -0.100131,0.100131 -0.06675,0.100132 -0.15576,0.261454 -0.166885,0.294831 -0.428339,0.584098 -0.261453,0.289268 -0.567409,0.534033 -0.305957,0.244765 -0.634164,0.428339 -0.322645,0.183574 -0.617476,0.261454 -0.06119,0.01669 -0.183574,0.03338 -0.116819,0.02225 -0.244765,0.03894 -0.127945,0.02225 -0.239202,0.03338 -0.105694,0.01112 -0.150197,0.01112 -0.339333,0 -0.584098,-0.155759 -0.239202,-0.15576 -0.394962,-0.389399 -0.155759,-0.23364 -0.228076,-0.500656 -0.07232,-0.272579 -0.07232,-0.506219 0,-0.0445 0.01112,-0.189136 0.01113,-0.150197 0.03894,-0.333771 0.02781,-0.189136 0.06675,-0.383836 0.0445,-0.200262 0.100132,-0.33377 0.111256,-0.244765 0.300393,-0.600787 0.1947,-0.356022 0.422776,-0.706481 0.15576,-0.244765 0.428339,-0.5062187 0.272579,-0.2614536 0.589661,-0.4728416 0.322645,-0.2169508 0.661978,-0.3560219 0.344897,-0.139071 0.634164,-0.139071 0.127946,0 0.222514,0.027814 0.09457,0.027814 0.166885,0.072317 0.07232,0.044503 0.127946,0.1001312 0.06119,0.055628 0.111256,0.1168197 0.05007,0.055628 0.09457,0.1001311 0.0445,0.044503 0.05563,0.044503 0.216951,0.050066 0.356022,0.2002623 0.144634,0.1501967 0.228077,0.350459 0.08901,0.1946989 0.133508,0.4116499 0.05007,0.211388 0.07788,0.389399 0.01669,0.11682 0.09457,0.261454 0.08344,0.139071 0.244765,0.267016 0.166885,0.122383 0.422776,0.211388 0.261453,0.08344 0.634164,0.08344 0.233639,0 0.422776,-0.02225 0.189136,-0.02225 0.33377,-0.0445 0.150197,-0.02781 0.250328,-0.05007 0.100131,-0.02225 0.15576,-0.02225 0.183574,0 0.250328,0.06675 0.06675,0.06119 0.06675,0.183574 z m -4.044186,-0.305957 q 0,-0.06675 -0.03338,-0.150196 -0.02781,-0.08344 -0.07232,-0.183574 -0.0445,-0.105694 -0.09457,-0.222514 -0.05006,-0.122382 -0.08901,-0.261453 -0.03894,-0.144634 -0.05563,-0.261454 -0.01113,-0.122382 -0.02781,-0.211388 -0.01669,-0.094568 -0.0445,-0.1446338 -0.02782,-0.050066 -0.09457,-0.050066 -0.183573,0 -0.406087,0.1446338 -0.216951,0.144634 -0.439465,0.389399 -0.222513,0.244765 -0.433901,0.56741 -0.211388,0.317082 -0.378274,0.673104 -0.161322,0.356022 -0.261453,0.72317 -0.100131,0.361584 -0.100131,0.695355 0,0.09457 0.03894,0.189136 0.0445,0.08901 0.105694,0.161323 0.06119,0.06675 0.133508,0.111257 0.07232,0.0445 0.139071,0.0445 0.205825,0 0.45059,-0.133508 0.244765,-0.133508 0.478404,-0.322645 0.23364,-0.194699 0.433902,-0.406087 0.200262,-0.211388 0.317082,-0.367148 0.183574,-0.239202 0.305956,-0.467278 0.127946,-0.23364 0.127946,-0.517345 z M 50.838812,5.8630556 q 0.211388,0 0.406088,0.07788 0.200262,0.07788 0.356022,0.2169508 0.155759,0.1390711 0.244765,0.3226448 0.09457,0.178011 0.09457,0.389399 0,0.3059563 -0.183574,0.4839672 -0.183573,0.1724481 -0.534032,0.1724481 -0.144634,0 -0.261454,-0.061191 -0.11682,-0.061191 -0.216951,-0.1279454 -0.09457,-0.072317 -0.183574,-0.1335082 -0.08344,-0.061191 -0.178011,-0.061191 -0.300393,0 -0.700918,0.083443 -0.394961,0.083443 -0.906743,0.3003934 -0.483967,0.2058252 -0.928994,0.4950929 -0.445028,0.283705 -0.867804,0.634164 -0.41165,0.3393334 -0.795486,0.7676722 -0.378273,0.4283388 -0.667541,0.8566776 -0.111257,0.166885 -0.211388,0.383836 -0.09457,0.216951 -0.166885,0.467279 -0.07232,0.244765 -0.11682,0.511781 -0.03894,0.261454 -0.03894,0.522907 0,0.255891 0.144634,0.422776 0.150197,0.161323 0.361585,0.255891 0.211388,0.09457 0.445027,0.133508 0.233639,0.03338 0.406087,0.03338 0.322645,0 0.68423,-0.07788 0.361585,-0.07788 0.723169,-0.211388 0.367148,-0.139071 0.712044,-0.322645 0.344896,-0.183574 0.628601,-0.389399 0.07232,-0.05563 0.205825,-0.178011 0.133509,-0.127945 0.261454,-0.272579 0.127945,-0.150197 0.222514,-0.289268 0.100131,-0.144634 0.100131,-0.233639 0,-0.05007 -0.01669,-0.11682 -0.01112,-0.06675 -0.02781,-0.133508 -0.01113,-0.06675 -0.02781,-0.127946 -0.01113,-0.06675 -0.01113,-0.105694 0,-0.361584 0.695355,-0.361584 0.178011,0 0.344897,0.08344 0.172448,0.08344 0.305956,0.200263 0.133508,0.116819 0.216951,0.244765 0.08901,0.122382 0.09457,0.205825 0,0.01669 -0.05006,0.127945 -0.0445,0.105694 -0.122383,0.261454 -0.07232,0.155759 -0.161322,0.339333 -0.08901,0.178011 -0.166886,0.333771 -0.07788,0.155759 -0.139071,0.272579 -0.05563,0.111257 -0.06675,0.139071 -0.08344,0.200262 -0.178011,0.483967 -0.09457,0.283705 -0.178011,0.572973 -0.07788,0.283705 -0.127945,0.539595 -0.05007,0.250328 -0.05007,0.383837 0,0.05007 0.02225,0.08901 0.02781,0.0445 0.05563,0.07788 0.02781,0.03894 0.05007,0.07232 0.02781,0.03338 0.02781,0.06675 0,0.161322 -0.06119,0.300393 -0.06119,0.139071 -0.172448,0.244765 -0.105694,0.105694 -0.255891,0.161323 -0.144634,0.06119 -0.317082,0.06119 -0.200262,0 -0.333771,-0.06119 -0.127945,-0.06119 -0.211388,-0.172448 -0.07788,-0.111257 -0.111257,-0.27258 -0.02781,-0.155759 -0.02781,-0.350459 0,-0.111256 0.06119,-0.311519 0.06119,-0.200262 0.144633,-0.422776 0.08344,-0.228076 0.172449,-0.445027 0.08901,-0.222514 0.144633,-0.367148 -0.37271,0.250328 -0.717606,0.467279 -0.344896,0.216951 -0.72317,0.378273 -0.37271,0.161323 -0.812175,0.255891 -0.433901,0.08901 -0.990185,0.08901 -0.556285,0 -1.051378,-0.150196 -0.48953,-0.150197 -0.856677,-0.411651 -0.367148,-0.267016 -0.584099,-0.623038 -0.211388,-0.356022 -0.211388,-0.762109 0,-0.801049 0.367148,-1.657727 0.367148,-0.8566777 1.112568,-1.7244811 0.31152,-0.3615847 0.639727,-0.6842295 Q 45.899024,7.8990657 46.199417,7.643175 46.410805,7.4651641 46.672259,7.2871531 46.933712,7.1035793 47.22298,6.9366941 47.512248,6.7698088 47.818204,6.6251749 48.124161,6.480541 48.430117,6.3637214 48.758325,6.2413388 49.053155,6.1467705 49.347986,6.0522025 49.631691,5.991011 49.920959,5.92982 50.215789,5.896443 50.51062,5.863066 50.838827,5.863066 Z M 36.13622,9.4900285 q 0,-0.089005 -0.03338,-0.1446339 -0.03338,-0.061191 -0.07788,-0.094568 -0.03894,-0.033377 -0.08344,-0.044503 -0.03894,-0.016689 -0.05563,-0.016689 -0.250328,0 -0.461716,0.1946995 -0.211388,0.1891366 -0.378273,0.4895301 -0.166885,0.3003938 -0.29483,0.6619788 -0.122383,0.361584 -0.205826,0.700918 0.333771,-0.255891 0.623039,-0.472842 0.289268,-0.216951 0.500655,-0.422776 0.216951,-0.205825 0.339334,-0.4116504 0.127945,-0.2058251 0.127945,-0.4394645 z m 2.697979,2.1305685 q 0,0.205825 -0.161323,0.467279 -0.161322,0.261453 -0.433902,0.545158 -0.300393,0.305956 -0.661978,0.572973 -0.356022,0.261453 -0.745421,0.456153 -0.383836,0.189137 -0.78436,0.300393 -0.400525,0.105694 -0.778798,0.105694 -0.467279,0 -0.834426,-0.144634 -0.361585,-0.150196 -0.617476,-0.433901 -0.250328,-0.289268 -0.383836,-0.717607 -0.133508,-0.428339 -0.133508,-0.984623 0,-0.33377 0.06119,-0.678667 0.06675,-0.344896 0.189137,-0.684229 0.122382,-0.344896 0.305956,-0.6619782 0.183574,-0.3226449 0.417213,-0.6063498 0.150197,-0.178011 0.339334,-0.3560219 0.194699,-0.1835738 0.428338,-0.3282077 0.23364,-0.1446339 0.511782,-0.2336393 0.283705,-0.094568 0.611912,-0.094568 0.267017,0 0.472842,0.1001311 0.211388,0.094568 0.356022,0.2447651 0.144634,0.1501967 0.222514,0.3393333 0.07788,0.1891366 0.07788,0.3727104 0,0.4339017 -0.189136,0.812175 -0.183574,0.37271 -0.517345,0.717606 -0.33377,0.339334 -0.806612,0.667541 -0.467278,0.328208 -1.034688,0.673104 -0.02781,0.01113 -0.08901,0.05007 -0.05563,0.03894 -0.05563,0.05007 0.0056,0.111257 0.05563,0.239202 0.05007,0.127946 0.15576,0.239203 0.105694,0.111257 0.267016,0.189136 0.166886,0.07232 0.394962,0.07232 0.350459,0 0.706481,-0.09457 0.356022,-0.100131 0.700918,-0.283705 0.344896,-0.183574 0.673104,-0.445027 0.328208,-0.261454 0.623038,-0.589662 0.111257,-0.127945 0.216951,-0.183573 0.111257,-0.05563 0.205825,-0.05563 0.09457,0 0.161323,0.07788 0.07232,0.07788 0.07232,0.283705 z m -4.911989,0.400525 q 0,0.05563 -0.08344,0.172448 -0.07788,0.111256 -0.211388,0.250328 -0.127945,0.139071 -0.294831,0.283704 -0.161322,0.144634 -0.322644,0.267017 -0.406088,0.305956 -0.76211,0.534033 -0.350459,0.228076 -0.661978,0.378273 -0.311519,0.150197 -0.595224,0.228076 -0.278142,0.07232 -0.539596,0.07232 -0.250328,0 -0.517344,-0.105694 -0.261454,-0.105694 -0.483967,-0.361584 -0.216951,-0.255891 -0.356022,-0.678667 -0.139071,-0.428339 -0.139071,-1.062503 0,-0.239202 0.02225,-0.539595 0.02225,-0.300394 0.05563,-0.628602 0.03338,-0.328207 0.07788,-0.673103 0.0445,-0.3448967 0.09457,-0.6675415 0.05007,-0.3282077 0.100131,-0.6230383 0.05007,-0.3003935 0.08901,-0.5340328 0.03338,-0.2002623 0.07788,-0.4172132 0.0445,-0.2225136 0.09457,-0.4394645 0.05007,-0.2169508 0.09457,-0.4116503 0.05007,-0.2002623 0.09457,-0.350459 0.0445,-0.1557596 0.133508,-0.3337705 0.09457,-0.1835738 0.216951,-0.3393334 0.122383,-0.1613224 0.267016,-0.2670164 0.150197,-0.105694 0.300394,-0.105694 0.189137,0 0.300393,0.044503 0.11682,0.044503 0.172449,0.1279453 0.06119,0.07788 0.07788,0.1891366 0.01669,0.1112569 0.01669,0.2447651 0,0.1501967 -0.03894,0.3560219 -0.03894,0.2058251 -0.100131,0.4505902 -0.05563,0.2392022 -0.127946,0.5117814 -0.07232,0.2670164 -0.144633,0.5395957 -0.01113,0.033377 -0.03338,0.1223825 -0.01669,0.083443 -0.0445,0.2002623 -0.02781,0.1112568 -0.06119,0.2392022 -0.02781,0.1223825 -0.05563,0.2336394 -0.02781,0.1112568 -0.05007,0.1946994 -0.01669,0.07788 -0.02225,0.105694 -0.03894,0.1835738 -0.089,0.5062186 -0.05007,0.3170823 -0.09457,0.6842293 -0.03894,0.367148 -0.06675,0.745421 -0.02781,0.37271 -0.02781,0.667541 0,0.378273 0.05007,0.617475 0.05007,0.23364 0.127945,0.367148 0.07788,0.127945 0.172448,0.178011 0.100131,0.0445 0.1947,0.0445 0.21695,0 0.428338,-0.0445 0.216951,-0.0445 0.461716,-0.15576 0.244765,-0.111257 0.534033,-0.300393 0.294831,-0.189137 0.661978,-0.472842 0.144634,-0.105694 0.250328,-0.222513 0.105694,-0.105694 0.1947,-0.166886 0.08901,-0.06675 0.233639,-0.06675 0.03894,0 0.09457,0.01669 0.05563,0.01669 0.105694,0.06119 0.05563,0.0445 0.08901,0.127945 0.03894,0.07788 0.03894,0.205826 z M 29.733389,7.9824983 q 0.150197,0 0.205825,0.072317 0.05563,0.072317 0.05563,0.1835738 0,0.1168197 -0.08901,0.2725792 -0.089,0.1557596 -0.239202,0.317082 -0.150197,0.1613224 -0.356022,0.3115192 -0.200262,0.1446339 -0.428339,0.2503278 -0.300393,0.1335083 -0.611912,0.2503279 -0.305957,0.1112569 -0.650853,0.2002623 -0.344896,0.089006 -0.745421,0.1613225 -0.394961,0.06675 -0.86224,0.111257 -0.100131,0.01113 -0.144634,0.06675 -0.03894,0.05007 -0.05563,0.166885 -0.01669,0.139071 -0.0445,0.328208 -0.02781,0.189136 -0.05563,0.37271 -0.02225,0.183574 -0.0445,0.339334 -0.01669,0.150196 -0.02781,0.21695 -0.03894,0.305957 -0.07788,0.545159 -0.03338,0.233639 -0.06675,0.439464 -0.02782,0.200263 -0.0445,0.389399 -0.01669,0.189137 -0.01669,0.400525 0,0.183574 0,0.305956 0,0.122383 -0.0056,0.205825 0,0.08344 -0.0056,0.139071 0,0.05007 -0.0056,0.08344 -0.0056,0.0445 -0.09457,0.11682 -0.08901,0.06675 -0.205825,0.133508 -0.111257,0.06675 -0.222513,0.111257 -0.111257,0.05007 -0.161323,0.05007 -0.200262,0 -0.328207,-0.100131 -0.122383,-0.100131 -0.1947,-0.228076 -0.07232,-0.127946 -0.100131,-0.244765 -0.02225,-0.122383 -0.02225,-0.166886 0,-0.506218 0.07788,-1.012437 0.07788,-0.511781 0.183574,-1.006874 0.03338,-0.172448 0.06675,-0.333771 0.03338,-0.161322 0.06119,-0.328207 0.02782,-0.172448 0.05563,-0.356022 0.03338,-0.183574 0.06119,-0.400525 v -0.01113 q 0,-0.05007 -0.05563,-0.06675 -0.05563,-0.02225 -0.111257,-0.02225 -0.03338,0 -0.144634,0.0056 -0.111257,0.0056 -0.261454,0.01669 -0.144633,0.01113 -0.311519,0.02225 -0.166885,0.01112 -0.317082,0.02225 -0.144634,0.01113 -0.250328,0.01669 -0.111256,0.0056 -0.144633,0.0056 -0.127946,0 -0.244765,-0.06675 -0.122383,-0.07232 -0.216951,-0.166885 -0.09457,-0.100131 -0.150197,-0.205825 -0.06119,-0.105694 -0.06119,-0.178011 0,-0.1501967 0.06119,-0.2558907 0.05563,-0.105694 0.150197,-0.1724481 0.08901,-0.072317 0.205825,-0.105694 0.11682,-0.033377 0.228076,-0.033377 0.07788,0 0.228077,-0.00556 0.150197,-0.00556 0.33377,-0.011126 0.183574,-0.00556 0.378274,-0.016688 0.200262,-0.016689 0.37271,-0.027814 0.178011,-0.011126 0.305956,-0.027814 0.127946,-0.016689 0.178011,-0.033377 0.05563,-0.022251 0.100131,-0.1946994 0.05007,-0.178011 0.127946,-0.5229072 0.02225,-0.1001311 0.05563,-0.2725792 0.03338,-0.178011 0.07232,-0.3838361 0.03894,-0.211388 0.07232,-0.4339017 0.03894,-0.2225137 0.07232,-0.422776 0.03338,-0.2002623 0.05007,-0.350459 0.02225,-0.1557596 0.02781,-0.2280765 0.0056,-0.094568 0.08344,-0.1946995 0.08344,-0.105694 0.189137,-0.1891366 0.105694,-0.083443 0.211388,-0.1390711 0.105694,-0.055628 0.161322,-0.055628 0.127946,0 0.244766,0.066754 0.116819,0.061191 0.200262,0.1501967 0.08901,0.089005 0.139071,0.1835738 0.05563,0.089005 0.05563,0.1390711 0,0.022251 -0.01669,0.1279453 -0.01669,0.105694 -0.0445,0.2503279 -0.02225,0.1446339 -0.05007,0.3115192 -0.02781,0.1668852 -0.06119,0.3226448 -0.02781,0.1557596 -0.05007,0.2781421 -0.02225,0.1168197 -0.03338,0.1724481 -0.07788,0.3671476 -0.127946,0.5896612 -0.0445,0.2169509 -0.06675,0.3448962 -0.02225,0.1223826 -0.03338,0.1724481 -0.0056,0.050066 -0.0056,0.083443 0,0.027814 0.0056,0.050066 0.01113,0.022251 0.02225,0.033377 0.01113,0.016689 0.02225,0.022251 0.105694,-0.011126 0.278142,-0.033377 0.178011,-0.022251 0.394962,-0.055628 0.222513,-0.033377 0.461716,-0.072317 0.244765,-0.044503 0.478404,-0.094568 0.239202,-0.055628 0.456153,-0.1168197 0.222514,-0.066754 0.389399,-0.139071 0.200262,-0.089006 0.356022,-0.1668853 0.161322,-0.083443 0.289268,-0.1446338 0.133508,-0.061191 0.239202,-0.094568 0.105694,-0.03894 0.200262,-0.03894 z m -4.672787,2.4142737 q 0,0.105694 -0.03894,0.233639 -0.03894,0.122383 -0.100131,0.244765 -0.05563,0.122383 -0.127945,0.233639 -0.06676,0.105694 -0.127946,0.178011 -0.178011,0.222514 -0.400524,0.472842 -0.216951,0.250328 -0.456153,0.495093 -0.239203,0.244765 -0.489531,0.472841 -0.250327,0.222514 -0.500655,0.389399 -0.1947,0.133509 -0.378274,0.250328 -0.178011,0.111257 -0.37271,0.200263 -0.189137,0.08901 -0.406087,0.139071 -0.211388,0.05007 -0.467279,0.05007 -0.417213,0 -0.695355,-0.166885 -0.27258,-0.166885 -0.445028,-0.445027 -0.172448,-0.278142 -0.267016,-0.634164 -0.08901,-0.361585 -0.139071,-0.750984 -0.07232,-0.52847 -0.161323,-0.834426 -0.08901,-0.311519 -0.21695,-0.311519 -0.111257,0 -0.216951,0.05563 -0.105694,0.05007 -0.267017,0.222514 -0.155759,0.172448 -0.400524,0.506218 -0.239203,0.328208 -0.628601,0.878929 -0.133509,0.189137 -0.328208,0.422776 -0.189137,0.23364 -0.400525,0.45059 -0.211388,0.211388 -0.422776,0.378274 -0.205825,0.161322 -0.383836,0.222513 -0.700918,-0.155759 -0.700918,-1.340645 0,-0.300393 0.06675,-0.884491 0.03338,-0.261454 0.07232,-0.550722 0.0445,-0.289267 0.105694,-0.578535 0.06675,-0.294831 0.15576,-0.572973 0.08901,-0.2837049 0.205825,-0.5229071 0.06675,-0.1335082 0.150197,-0.211388 0.08344,-0.07788 0.166885,-0.1168197 0.08901,-0.03894 0.183574,-0.050066 0.09457,-0.011126 0.189136,-0.011126 0.08344,0 0.161323,0.044503 0.07788,0.03894 0.139071,0.1168197 0.06119,0.07788 0.09457,0.1891366 0.03894,0.1112568 0.03894,0.2558907 0,0.1279454 -0.02225,0.2447651 -0.02225,0.1168196 -0.06119,0.2447647 -0.03894,0.122382 -0.08344,0.261453 -0.03894,0.139071 -0.08344,0.317082 -0.02781,0.11682 -0.08344,0.300394 -0.05007,0.183574 -0.105694,0.383836 -0.05007,0.194699 -0.09457,0.383836 -0.0445,0.189137 -0.05563,0.317082 0.100131,-0.11682 0.228076,-0.289268 0.133508,-0.178011 0.278142,-0.378273 0.144634,-0.205825 0.294831,-0.417213 0.150197,-0.211388 0.300393,-0.400525 0.1947,-0.244765 0.383836,-0.461716 0.189137,-0.21695 0.394962,-0.3727096 0.211388,-0.1613224 0.456153,-0.2503279 0.244765,-0.094568 0.550722,-0.094568 0.361584,0 0.589661,0.1501967 0.228076,0.1446339 0.361585,0.4060875 0.139071,0.2614533 0.205825,0.6230383 0.06675,0.356022 0.105694,0.778798 0.02225,0.216951 0.05563,0.445027 0.03894,0.228077 0.111257,0.417214 0.07232,0.183573 0.189137,0.305956 0.116819,0.11682 0.289267,0.11682 0.255891,0 0.556285,-0.133509 0.305956,-0.139071 0.639726,-0.378273 0.333771,-0.239202 0.68423,-0.556284 0.350459,-0.317082 0.700918,-0.678667 0.111257,-0.116819 0.211388,-0.228076 0.105694,-0.11682 0.200262,-0.205825 0.09457,-0.09457 0.183574,-0.150197 0.08901,-0.05563 0.178011,-0.05563 0.03338,0 0.07788,0.01113 0.0445,0.0056 0.08344,0.03338 0.03894,0.02225 0.06119,0.06675 0.02781,0.0445 0.02781,0.122383 z M 12.015738,9.5901597 q 0,-0.2447651 -0.07788,-0.3448962 -0.07232,-0.1001312 -0.166886,-0.1001312 -0.08344,0 -0.194699,0.1001312 -0.111257,0.1001311 -0.23364,0.2725792 -0.116819,0.1668853 -0.239202,0.3949618 -0.116819,0.2225135 -0.222513,0.4728415 -0.100132,0.250328 -0.172449,0.517344 -0.06675,0.261454 -0.09457,0.506219 0.161323,-0.133508 0.289268,-0.239202 0.133508,-0.111257 0.250328,-0.23364 0.116819,-0.116819 0.261453,-0.283705 0.150197,-0.172448 0.283705,-0.356021 0.133509,-0.183574 0.222514,-0.367148 0.09457,-0.1835738 0.09457,-0.3393333 z m 4.316766,0.6007873 q 0,0.0445 -0.03338,0.139071 -0.03338,0.09457 -0.111257,0.222513 -0.216951,0.344896 -0.545159,0.750984 -0.322645,0.406087 -0.717606,0.812175 -0.389399,0.400524 -0.83999,0.778798 -0.445027,0.37271 -0.906743,0.661978 -0.456153,0.289268 -0.912306,0.467279 -0.456153,0.172448 -0.867803,0.172448 -0.522907,0 -0.912306,-0.144634 Q 10.096558,13.906925 9.8406671,13.634346 9.5847764,13.356204 9.456831,12.961242 9.3288857,12.560717 9.3288857,12.054499 q 0,-0.383836 0.055628,-0.812175 0.061191,-0.428339 0.2169508,-0.867804 0.1557596,-0.445027 0.4172135,-0.8900543 0.267016,-0.4505902 0.678667,-0.8678034 0.317082,-0.3226448 0.684229,-0.4895301 0.367148,-0.1668852 0.700918,-0.1668852 0.06119,0 0.15576,0.027814 0.09457,0.022251 0.189137,0.066754 0.09457,0.044503 0.183573,0.105694 0.08901,0.061191 0.144634,0.1335082 0.178011,0.2280765 0.267017,0.4339017 0.08901,0.2002623 0.08901,0.456153 0,0.4005246 -0.111257,0.7231694 -0.111257,0.3226447 -0.305956,0.6063497 -0.189137,0.278143 -0.45059,0.539596 -0.261454,0.261454 -0.561847,0.545159 -0.183574,0.172448 -0.456153,0.378273 -0.272579,0.200262 -0.584099,0.439464 0.0445,0.172448 0.111257,0.300394 0.06675,0.122382 0.166885,0.205825 0.100132,0.08344 0.239203,0.127945 0.144634,0.03894 0.339333,0.03894 0.261454,0 0.556284,-0.08901 0.300394,-0.08901 0.600787,-0.228077 0.261454,-0.122382 0.517344,-0.305956 0.255891,-0.189137 0.517345,-0.389399 0.161322,-0.122383 0.41165,-0.350459 0.255891,-0.233639 0.517344,-0.483967 0.178011,-0.166886 0.356022,-0.322645 0.178011,-0.161323 0.378273,-0.356022 l 0.294831,-0.289268 q 0.322645,-0.261453 0.522907,-0.261453 0.105694,0 0.133508,0.06119 0.02782,0.06119 0.02782,0.11682 z M 7.3874537,5.8630556 q 0.211388,0 0.4060874,0.07788 0.2002623,0.07788 0.3560219,0.2169508 0.1557596,0.1390711 0.2447651,0.3226448 0.094568,0.178011 0.094568,0.389399 0,0.3059563 -0.1835738,0.4839672 -0.1835738,0.1724481 -0.5340328,0.1724481 -0.1446339,0 -0.2614536,-0.061191 Q 7.3930165,7.4039628 7.2928854,7.3372087 7.1983171,7.2648917 7.1093116,7.2037005 7.025869,7.1425092 6.9313006,7.1425092 q -0.3003934,0 -0.700918,0.083443 Q 5.8354208,7.3093945 5.3236393,7.5263453 4.8396721,7.7321705 4.3946447,8.0214382 3.9496174,8.3051432 3.5268414,8.6556022 3.1151911,8.9949356 2.731355,9.4232744 2.3530818,9.8516132 2.063814,10.279952 q -0.1112569,0.166885 -0.211388,0.383836 -0.094568,0.216951 -0.1668853,0.467279 -0.072317,0.244765 -0.1168196,0.511781 -0.03894,0.261454 -0.03894,0.522907 0,0.255891 0.1446339,0.422776 0.1501967,0.161323 0.3615847,0.255891 0.211388,0.09457 0.4450273,0.133508 0.2336394,0.03338 0.4060875,0.03338 0.3226448,0 0.6842295,-0.07788 0.3615848,-0.07788 0.7231695,-0.211388 0.3671475,-0.139071 0.7120437,-0.322645 0.3448962,-0.183574 0.6286012,-0.389399 0.072317,-0.05563 0.2058251,-0.178011 0.1335082,-0.127945 0.2614536,-0.272579 0.1279454,-0.150197 0.2225137,-0.289268 0.1001311,-0.144634 0.1001311,-0.233639 0,-0.05007 -0.016688,-0.11682 -0.011126,-0.06675 -0.027814,-0.133508 -0.011126,-0.06675 -0.027814,-0.127946 -0.011126,-0.06675 -0.011126,-0.105694 0,-0.361584 0.6953552,-0.361584 0.178011,0 0.3448962,0.08344 0.1724481,0.08344 0.3059563,0.200263 0.1335082,0.116819 0.2169509,0.244765 0.089005,0.122382 0.094568,0.205825 0,0.01669 -0.050066,0.127945 -0.044503,0.105694 -0.1223825,0.261454 -0.072317,0.155759 -0.1613224,0.339333 -0.089005,0.178011 -0.1668853,0.333771 -0.07788,0.155759 -0.139071,0.272579 -0.055629,0.111257 -0.066754,0.139071 -0.083443,0.200262 -0.178011,0.483967 -0.094568,0.283705 -0.1780109,0.572973 -0.07788,0.283705 -0.1279454,0.539595 -0.050066,0.250328 -0.050066,0.383837 0,0.05007 0.022251,0.08901 0.027814,0.0445 0.055628,0.07788 0.027814,0.03894 0.050066,0.07232 0.027814,0.03338 0.027814,0.06675 0,0.161322 -0.061191,0.300393 -0.061191,0.139071 -0.1724481,0.244765 -0.105694,0.105694 -0.2558908,0.161323 -0.1446339,0.06119 -0.317082,0.06119 -0.2002623,0 -0.3337705,-0.06119 -0.1279453,-0.06119 -0.211388,-0.172448 -0.07788,-0.111257 -0.1112568,-0.27258 -0.027814,-0.155759 -0.027814,-0.350459 0,-0.111256 0.061191,-0.311519 0.061191,-0.200262 0.1446339,-0.422776 0.083443,-0.228076 0.1724481,-0.445027 0.089006,-0.222514 0.1446339,-0.367148 -0.3727104,0.250328 -0.7176066,0.467279 -0.3448962,0.216951 -0.7231694,0.378273 -0.3727104,0.161323 -0.8121749,0.255891 -0.4339017,0.08901 -0.9901859,0.08901 -0.5562842,0 -1.0513771,-0.150196 Q 1.1626336,13.940302 0.79548603,13.678848 0.42833847,13.411832 0.21138763,13.05581 -3.5762787e-7,12.699788 -3.5762787e-7,12.293701 q 0,-0.801049 0.36714756762787,-1.657727 Q 0.73429477,9.7792963 1.4797156,8.9114929 1.7912347,8.5499082 2.1194424,8.2272634 2.4476501,7.8990557 2.7480435,7.643165 2.9594315,7.4651541 3.2208851,7.2871431 3.4823387,7.1035693 3.7716064,6.9366841 4.0608742,6.7697988 4.3668305,6.6251649 4.6727868,6.480531 4.9787431,6.3637114 5.3069508,6.2413288 5.6017814,6.1467605 5.896612,6.0521922 6.180317,5.991001 6.4695848,5.9298097 6.7644154,5.8964326 7.059246,5.8630556 7.3874537,5.8630556 Z" />
    </g>
  </g>
</svg>
