<?xml version="1.0" encoding="UTF-8" standalone="no"?>
<!-- Created with Inkscape (http://www.inkscape.org/) -->

<svg
   width="100mm"
   height="100mm"
   viewBox="0 0 100 100"
   version="1.1"
   id="svg49738"
   xmlns="http://www.w3.org/2000/svg"
   xmlnsSvg="http://www.w3.org/2000/svg">
  <defs
     id="defs49735" />
  <g
     id="layer1">
    <g
       id="g51607"
       transform="matrix(2.270125,0,0,2.270125,-34.829173,-10.887107)">
      <ellipse
         style="font-variation-settings:'wght' 600;fill:#e9e9e9;fill-opacity:1;stroke:none;stroke-width:0.667326;stroke-linecap:square;stroke-miterlimit:2.8;stroke-dasharray:none;stroke-opacity:1;paint-order:stroke fill markers"
         id="path55306"
         cx="37.367622"
         cy="26.820717"
         rx="22.025219"
         ry="22.024899" />
      <g
         style="fill:#000000"
         id="g55428"
         transform="matrix(1.522483,0,0,1.522483,19.08805,8.49309)">
        <path
           d="M 0,0 H 24 V 24 H 0 Z"
           fill="none"
           id="path55416" />
        <path
           d="m 20.01,15.38 c -1.23,0 -2.42,-0.2 -3.53,-0.56 -0.35,-0.12 -0.74,-0.03 -1.01,0.24 L 13.9,17.03 C 11.07,15.68 8.42,13.13 7.01,10.2 L 8.96,8.54 C 9.23,8.26 9.31,7.87 9.2,7.52 8.83,6.41 8.64,5.22 8.64,3.99 8.64,3.45 8.19,3 7.65,3 H 4.19 C 3.65,3 3,3.24 3,3.99 3,13.28 10.73,21 20.01,21 20.72,21 21,20.37 21,19.82 v -3.45 c 0,-0.54 -0.45,-0.99 -0.99,-0.99 z"
           id="path55418"
           style="fill:#ffffff;fill-opacity:1" />
      </g>
    </g>
  </g>
</svg>
