<?xml version="1.0" encoding="UTF-8" standalone="no"?>
<!-- Created with Inkscape (http://www.inkscape.org/) -->

<svg
   width="100mm"
   height="81mm"
   viewBox="0 0 100 81"
   version="1.1"
   id="svg56266"
   xmlns="http://www.w3.org/2000/svg"
   xmlnsSvg="http://www.w3.org/2000/svg">
  <defs
     id="defs56263" />
  <g
     id="layer1">
    <ellipse
       style="font-variation-settings:'wght' 600;fill:#e9e9e9;fill-opacity:1;stroke:none;stroke-width:1.21647;stroke-linecap:square;stroke-miterlimit:2.8;stroke-dasharray:none;stroke-opacity:1;paint-order:stroke fill markers"
       id="path55306"
       cx="50.532162"
       cy="40.549095"
       rx="40.149681"
       ry="40.149097" />
    <g
       style="fill:#000000"
       id="g55428"
       transform="matrix(2.775328,0,0,2.775328,17.210404,7.139742)">
      <path
         d="M 0,0 H 24 V 24 H 0 Z"
         fill="none"
         id="path55416" />
      <path
         d="m 20.01,15.38 c -1.23,0 -2.42,-0.2 -3.53,-0.56 -0.35,-0.12 -0.74,-0.03 -1.01,0.24 L 13.9,17.03 C 11.07,15.68 8.42,13.13 7.01,10.2 L 8.96,8.54 C 9.23,8.26 9.31,7.87 9.2,7.52 8.83,6.41 8.64,5.22 8.64,3.99 8.64,3.45 8.19,3 7.65,3 H 4.19 C 3.65,3 3,3.24 3,3.99 3,13.28 10.73,21 20.01,21 20.72,21 21,20.37 21,19.82 v -3.45 c 0,-0.54 -0.45,-0.99 -0.99,-0.99 z"
         id="path55418"
         style="fill:#ffffff;fill-opacity:1" />
    </g>
    <g
       aria-label="507-262-1896"
       id="text17101-6-3-8"
       style="font-size:16.2569px;line-height:1.25;font-family:Outfit;-inkscape-font-specification:'Outfit, @wght=600';font-variation-settings:'wght' 600;display:inline;stroke-width:0.406424">
      <path
         d="m 3.7878627,46.156267 q -1.1867537,0 -2.1621678,-0.406422 Q 0.65028087,45.327165 4.8346519e-6,44.546834 L 1.4631259,43.09997 q 0.325138,0.487707 0.9266434,0.780331 0.6177622,0.292624 1.3493227,0.292624 0.6665329,0 1.15424,-0.243853 0.5039639,-0.243854 0.7803312,-0.68279 0.2926242,-0.455193 0.2926242,-1.056699 0,-0.634019 -0.2926242,-1.072955 -0.2763673,-0.438936 -0.7478174,-0.666533 -0.4714501,-0.227597 -1.0566986,-0.227597 -0.6177622,0 -1.1217261,0.162569 -0.4877071,0.146312 -0.9429003,0.487707 L 1.934576,39.474681 q 0.3088811,-0.325138 0.6502761,-0.520221 0.3413949,-0.21134 0.7640743,-0.308881 0.4389363,-0.113798 1.0241847,-0.113798 1.2517814,0 2.0808833,0.52022 0.8453589,0.503964 1.2842952,1.36558 0.4389363,0.845359 0.4389363,1.869544 0,1.121726 -0.5527346,1.999599 -0.5527346,0.877872 -1.5444056,1.381836 -0.975414,0.487707 -2.292223,0.487707 z M 1.8045208,40.872774 0.74782227,39.832333 1.2680431,34.565097 h 1.9995988 l -0.5852484,5.34852 z M 1.609438,36.483411 1.2680431,34.565097 h 6.2751637 v 1.918314 z"
         id="path58668"
         style="fill:#5b2d7d;fill-opacity:1" />
      <path
         d="m 14.110987,46.156267 q -1.349323,0 -2.438536,-0.73156 -1.089212,-0.731561 -1.739488,-2.064627 -0.6340191,-1.333066 -0.6340191,-3.105068 0,-1.772002 0.6340191,-3.088811 0.634019,-1.316809 1.706975,-2.04837 1.089212,-0.73156 2.422278,-0.73156 1.365579,0 2.438535,0.73156 1.089212,0.731561 1.723231,2.064627 0.63402,1.316809 0.63402,3.105068 0,1.772002 -0.63402,3.105068 -0.634019,1.316809 -1.706974,2.048369 -1.072956,0.715304 -2.406021,0.715304 z m -0.03251,-1.999599 q 0.780331,0 1.349322,-0.438936 0.568992,-0.438936 0.877873,-1.300552 0.325138,-0.861616 0.325138,-2.145911 0,-1.284295 -0.325138,-2.145911 -0.308881,-0.861616 -0.894129,-1.284295 -0.568992,-0.438936 -1.349323,-0.438936 -0.764075,0 -1.333066,0.438936 -0.568992,0.422679 -0.89413,1.284295 -0.308881,0.845359 -0.308881,2.129654 0,1.300552 0.308881,2.162168 0.325138,0.861616 0.89413,1.300552 0.568991,0.438936 1.349323,0.438936 z"
         id="path58670"
         style="fill:#5b2d7d;fill-opacity:1" />
      <path
         d="m 20.894171,45.993698 4.015455,-10.144306 h 2.178424 l -3.901656,10.144306 z m -1.576919,-9.510287 v -1.918314 h 7.770798 v 1.284295 l -0.829102,0.634019 z"
         id="path58672"
         style="fill:#5b2d7d;fill-opacity:1" />
      <path
         d="m 27.705797,42.807346 v -1.934572 h 5.624887 v 1.934572 z"
         id="path58674"
         style="fill:#5b2d7d;fill-opacity:1" />
      <path
         d="m 34.346714,44.72566 4.308079,-4.503162 q 0.455193,-0.487707 0.731561,-0.861615 0.292624,-0.390166 0.422679,-0.731561 0.130055,-0.357652 0.130055,-0.715304 0,-0.715303 -0.47145,-1.121726 -0.455193,-0.406422 -1.186754,-0.406422 -0.747817,0 -1.333065,0.390165 -0.568992,0.390166 -1.072956,1.235525 l -1.511892,-1.284295 q 0.68279,-1.15424 1.690718,-1.739489 1.024185,-0.601505 2.340994,-0.601505 1.121726,0 1.950828,0.438936 0.845359,0.438937 1.300552,1.219268 0.455193,0.780331 0.455193,1.820773 0,0.699046 -0.178826,1.268038 -0.162569,0.568992 -0.568991,1.137983 -0.390166,0.552735 -1.089213,1.251781 l -3.137582,3.20261 z m 0,1.268038 V 44.72566 l 1.885801,-0.650276 h 6.112595 v 1.918314 z"
         id="path58676"
         style="fill:#5b2d7d;fill-opacity:1" />
      <path
         d="m 47.53105,46.156267 q -1.170497,0 -2.113397,-0.520221 -0.926644,-0.536477 -1.479378,-1.430607 -0.536478,-0.910386 -0.536478,-2.015856 0,-1.511891 1.040442,-3.04004 l 3.170095,-4.584446 h 2.536077 l -3.46272,4.844556 -0.812845,0.227597 q 0.178826,-0.373909 0.422679,-0.650276 0.260111,-0.276367 0.666533,-0.42268 0.406423,-0.146312 1.024185,-0.146312 1.024185,0 1.853287,0.487707 0.829102,0.47145 1.333066,1.316809 0.503964,0.829102 0.503964,1.918315 0,1.121726 -0.552735,2.032112 -0.552735,0.910387 -1.495635,1.446864 -0.9429,0.536478 -2.09714,0.536478 z m 0,-1.983342 q 0.568991,0 1.007928,-0.26011 0.438936,-0.276367 0.699047,-0.731561 0.26011,-0.47145 0.26011,-1.056698 0,-0.585249 -0.26011,-1.040442 -0.260111,-0.47145 -0.699047,-0.73156 -0.438937,-0.260111 -1.007928,-0.260111 -0.568992,0 -1.024185,0.276367 -0.438936,0.260111 -0.699047,0.715304 -0.243853,0.455193 -0.243853,1.040442 0,0.585248 0.243853,1.056698 0.260111,0.455194 0.699047,0.731561 0.455193,0.26011 1.024185,0.26011 z"
         id="path58678"
         style="fill:#5b2d7d;fill-opacity:1" />
      <path
         d="m 52.570671,44.72566 4.308079,-4.503162 q 0.455193,-0.487707 0.731561,-0.861615 0.292624,-0.390166 0.422679,-0.731561 0.130055,-0.357652 0.130055,-0.715304 0,-0.715303 -0.47145,-1.121726 -0.455193,-0.406422 -1.186754,-0.406422 -0.747817,0 -1.333065,0.390165 -0.568992,0.390166 -1.072956,1.235525 l -1.511892,-1.284295 q 0.68279,-1.15424 1.690718,-1.739489 1.024185,-0.601505 2.340994,-0.601505 1.121726,0 1.950828,0.438936 0.845359,0.438937 1.300552,1.219268 0.455193,0.780331 0.455193,1.820773 0,0.699046 -0.178826,1.268038 -0.162569,0.568992 -0.568991,1.137983 -0.390166,0.552735 -1.089213,1.251781 l -3.137581,3.20261 z m 0,1.268038 V 44.72566 l 1.885801,-0.650276 h 6.112595 v 1.918314 z"
         id="path58680"
         style="fill:#5b2d7d;fill-opacity:1" />
      <path
         d="m 61.707031,42.807346 v -1.934572 h 5.624887 v 1.934572 z"
         id="path58682"
         style="fill:#5b2d7d;fill-opacity:1" />
      <path
         d="M 70.128062,45.993698 V 34.565097 h 2.178425 V 45.993698 Z M 67.88461,36.483411 v -1.918314 h 4.259308 v 1.918314 z"
         id="path58684"
         style="fill:#5b2d7d;fill-opacity:1" />
      <path
         d="m 77.996375,46.156267 q -1.219268,0 -2.113397,-0.422679 -0.877873,-0.42268 -1.381837,-1.186754 -0.487707,-0.764074 -0.487707,-1.723232 0,-0.796588 0.308881,-1.446864 0.308881,-0.650276 0.877873,-1.089212 0.585248,-0.455193 1.365579,-0.634019 l -0.04877,0.536478 q -0.650276,-0.162569 -1.105469,-0.568992 -0.455194,-0.406423 -0.68279,-0.959157 -0.227597,-0.568992 -0.227597,-1.170497 0,-0.926643 0.438936,-1.62569 0.455194,-0.699047 1.235525,-1.089212 0.796588,-0.390166 1.820773,-0.390166 1.024184,0 1.804516,0.390166 0.780331,0.390165 1.219267,1.089212 0.455193,0.699047 0.455193,1.62569 0,0.601505 -0.227596,1.170497 -0.227597,0.552734 -0.68279,0.959157 -0.438936,0.406423 -1.105469,0.568992 l -0.04877,-0.536478 q 0.796588,0.178826 1.36558,0.634019 0.568991,0.438936 0.877872,1.089212 0.308882,0.650276 0.308882,1.446864 0,0.959158 -0.487708,1.723232 -0.487707,0.764074 -1.381836,1.186754 -0.89413,0.422679 -2.09714,0.422679 z m 0,-1.934571 q 0.536477,0 0.959157,-0.21134 0.422679,-0.227596 0.650276,-0.617762 0.243853,-0.390166 0.243853,-0.877873 0,-0.503964 -0.243853,-0.877872 -0.227597,-0.390166 -0.650276,-0.601506 -0.42268,-0.227596 -0.959157,-0.227596 -0.552735,0 -0.975414,0.227596 -0.406423,0.21134 -0.650276,0.601506 -0.243854,0.373908 -0.243854,0.877872 0,0.487707 0.243854,0.877873 0.243853,0.390166 0.650276,0.617762 0.422679,0.21134 0.975414,0.21134 z m 0,-5.08841 q 0.634019,0 1.040441,-0.406423 0.406423,-0.406422 0.406423,-1.040441 0,-0.650276 -0.406423,-1.056699 -0.406422,-0.406422 -1.040441,-0.406422 -0.634019,0 -1.056699,0.406422 -0.406422,0.406423 -0.406422,1.040442 0,0.650276 0.406422,1.056698 0.42268,0.406423 1.056699,0.406423 z"
         id="path58686"
         style="fill:#5b2d7d;fill-opacity:1" />
      <path
         d="m 84.37719,45.993698 3.478977,-4.844556 0.796588,-0.243854 q -0.195083,0.373909 -0.455193,0.666533 -0.243854,0.276367 -0.63402,0.42268 -0.390165,0.146312 -1.024184,0.146312 -1.007928,0 -1.853287,-0.47145 -0.829102,-0.487708 -1.333066,-1.333066 -0.503964,-0.845359 -0.503964,-1.934572 0,-1.105469 0.552735,-2.015855 0.552734,-0.926644 1.495635,-1.463121 0.9429,-0.536478 2.09714,-0.536478 1.170497,0 2.09714,0.536478 0.9429,0.536477 1.479378,1.430607 0.552735,0.894129 0.552735,1.999599 0,1.511892 -1.056699,3.056297 l -3.170096,4.584446 z m 2.617361,-5.543603 q 0.568991,0 1.007928,-0.26011 0.438936,-0.260111 0.68279,-0.715304 0.26011,-0.47145 0.26011,-1.040442 0,-0.601505 -0.26011,-1.056698 -0.243854,-0.455194 -0.68279,-0.715304 -0.438937,-0.276367 -1.007928,-0.276367 -0.568992,0 -1.024185,0.276367 -0.438936,0.26011 -0.699047,0.715304 -0.243853,0.455193 -0.243853,1.056698 0,0.585249 0.243853,1.040442 0.260111,0.455193 0.715304,0.715304 0.455193,0.26011 1.007928,0.26011 z"
         id="path58688"
         style="fill:#5b2d7d;fill-opacity:1" />
      <path
         d="m 95.854529,46.156267 q -1.170497,0 -2.113397,-0.520221 -0.926644,-0.536477 -1.479378,-1.430607 -0.536478,-0.910386 -0.536478,-2.015856 0,-1.511891 1.040441,-3.04004 l 3.170096,-4.584446 h 2.536077 l -3.46272,4.844556 -0.812845,0.227597 q 0.178826,-0.373909 0.422679,-0.650276 0.260111,-0.276367 0.666533,-0.42268 0.406423,-0.146312 1.024185,-0.146312 1.024185,0 1.853287,0.487707 0.829101,0.47145 1.333065,1.316809 0.503966,0.829102 0.503966,1.918315 0,1.121726 -0.552736,2.032112 -0.552735,0.910387 -1.495635,1.446864 -0.9429,0.536478 -2.09714,0.536478 z m 0,-1.983342 q 0.568991,0 1.007927,-0.26011 0.438937,-0.276367 0.699047,-0.731561 0.260111,-0.47145 0.260111,-1.056698 0,-0.585249 -0.260111,-1.040442 -0.26011,-0.47145 -0.699047,-0.73156 -0.438936,-0.260111 -1.007927,-0.260111 -0.568992,0 -1.024185,0.276367 -0.438936,0.260111 -0.699047,0.715304 -0.243853,0.455193 -0.243853,1.040442 0,0.585248 0.243853,1.056698 0.260111,0.455194 0.699047,0.731561 0.455193,0.26011 1.024185,0.26011 z"
         id="path58690"
         style="fill:#5b2d7d;fill-opacity:1" />
    </g>
  </g>
</svg>
